<svg id="Rocks_1" data-name="Rocks 1" xmlns="http://www.w3.org/2000/svg" xmlns:xlink="http://www.w3.org/1999/xlink" viewBox="0 0 1034.55 223.37"><defs><style>.cls-1{fill:url(#New_Gradient_Swatch_4);}.cls-2{fill:url(#New_Gradient_Swatch_4-2);}.cls-3{fill:url(#New_Gradient_Swatch_4-3);}.cls-4{fill:url(#New_Gradient_Swatch_4-4);}.cls-5{fill:url(#New_Gradient_Swatch_4-5);}.cls-6{fill:url(#New_Gradient_Swatch_4-6);}.cls-7{fill:url(#New_Gradient_Swatch_4-7);}.cls-8{fill:url(#linear-gradient);}.cls-9{fill:url(#linear-gradient-2);}.cls-10{fill:url(#linear-gradient-3);}.cls-11{fill:url(#linear-gradient-4);}.cls-12{fill:url(#linear-gradient-5);}.cls-13{fill:url(#linear-gradient-6);}.cls-14{fill:url(#linear-gradient-7);}.cls-15{fill:url(#linear-gradient-8);}.cls-16{fill:url(#linear-gradient-9);}.cls-17{fill:url(#linear-gradient-10);}.cls-18{fill:url(#linear-gradient-11);}.cls-19{fill:url(#linear-gradient-12);}</style><linearGradient id="New_Gradient_Swatch_4" x1="530.84" y1="617.94" x2="530.84" y2="622.48" gradientUnits="userSpaceOnUse"><stop offset="0" stop-color="#946769"/><stop offset="0.2" stop-color="#8a6266"/><stop offset="0.52" stop-color="#71535d"/><stop offset="0.94" stop-color="#473b4f"/><stop offset="0.98" stop-color="#42384d"/></linearGradient><linearGradient id="New_Gradient_Swatch_4-2" x1="521.69" y1="622.48" x2="521.69" y2="624.57" xlink:href="#New_Gradient_Swatch_4"/><linearGradient id="New_Gradient_Swatch_4-3" x1="923.3" y1="456.43" x2="923.3" y2="678.34" xlink:href="#New_Gradient_Swatch_4"/><linearGradient id="New_Gradient_Swatch_4-4" x1="711.54" y1="548.7" x2="711.54" y2="558.17" xlink:href="#New_Gradient_Swatch_4"/><linearGradient id="New_Gradient_Swatch_4-5" x1="491.06" y1="624.57" x2="491.06" y2="647.28" xlink:href="#New_Gradient_Swatch_4"/><linearGradient id="New_Gradient_Swatch_4-6" x1="617.25" y1="558.17" x2="617.25" y2="617.94" xlink:href="#New_Gradient_Swatch_4"/><linearGradient id="New_Gradient_Swatch_4-7" x1="445.93" y1="658.09" x2="445.93" y2="659" xlink:href="#New_Gradient_Swatch_4"/><linearGradient id="linear-gradient" x1="445.93" y1="659" x2="445.93" y2="658.09" gradientUnits="userSpaceOnUse"><stop offset="0" stop-color="#42384d" stop-opacity="0"/><stop offset="0.21" stop-color="#42384d" stop-opacity="0.08"/><stop offset="0.48" stop-color="#42384d" stop-opacity="0.3"/><stop offset="0.8" stop-color="#42384d" stop-opacity="0.67"/><stop offset="0.9" stop-color="#42384d" stop-opacity="0.8"/></linearGradient><linearGradient id="linear-gradient-2" x1="566.16" y1="679.1" x2="566.16" y2="608.99" xlink:href="#linear-gradient"/><linearGradient id="linear-gradient-3" x1="448.3" y1="658.1" x2="448.3" y2="655.39" xlink:href="#linear-gradient"/><linearGradient id="linear-gradient-4" x1="423.23" y1="679.1" x2="423.23" y2="657.7" xlink:href="#linear-gradient"/><linearGradient id="linear-gradient-5" x1="445.89" y1="658.35" x2="445.89" y2="657.31" xlink:href="#linear-gradient"/><linearGradient id="linear-gradient-6" x1="493.14" y1="639.78" x2="493.14" y2="632.95" xlink:href="#linear-gradient"/><linearGradient id="linear-gradient-7" x1="717.22" y1="554.64" x2="717.22" y2="548.74" xlink:href="#linear-gradient"/><linearGradient id="linear-gradient-8" x1="818.14" y1="679.1" x2="818.14" y2="456.65" xlink:href="#linear-gradient"/><linearGradient id="linear-gradient-9" x1="445.93" x2="445.93" y2="658.1" xlink:href="#linear-gradient"/><linearGradient id="linear-gradient-10" x1="532.64" y1="621.63" x2="532.64" y2="617.82" xlink:href="#linear-gradient"/><linearGradient id="linear-gradient-11" x1="404.81" y1="679.8" x2="404.81" y2="679.1" xlink:href="#linear-gradient"/><linearGradient id="linear-gradient-12" x1="409.68" y1="679.1" x2="409.68" y2="678.8" xlink:href="#linear-gradient"/></defs><path class="cls-1" d="M535,619c.68-.36,1.37-.71,2.06-1.06q-6.21,2.28-12.45,4.54C528.21,621.53,532,620.82,535,619Z" transform="translate(-400.72 -456.43)"/><path class="cls-2" d="M524.61,622.48a28,28,0,0,0-5.83,2.09Z" transform="translate(-400.72 -456.43)"/><path class="cls-3" d="M1057.2,470c-13.31-6.13-27-12.36-41.59-13.44-16-1.18-31.78,3.92-47.05,9L826.85,512.34l-9.11,3C798.85,527,777.56,533,757,539q-15.82,4.65-31.35,9.7c-9.22,3.61-18.66,6.66-28.21,9.47-54.31,18.8-106.73,40.05-160.38,59.77-.69.35-1.38.7-2.06,1.06-3,1.82-6.79,2.53-10.39,3.48l-5.83,2.09c-.27.14-.53.28-.78.43-14,7-31,14-45,20a96.49,96.49,0,0,1-9.66,2.28c-5.73,3.61-11.45,7.22-17.21,10.81a8.66,8.66,0,0,0-.13.91c-.1-.22-.18-.44-.27-.66-11.18,6.95-22.51,13.75-34.39,20H1435.07l.19-34.13Z" transform="translate(-400.72 -456.43)"/><path class="cls-4" d="M725.65,548.7q-14.21,4.6-28.21,9.47C707,555.36,716.43,552.31,725.65,548.7Z" transform="translate(-400.72 -456.43)"/><path class="cls-5" d="M518,625c.25-.15.51-.29.78-.43-2.26.81-4.51,1.63-6.78,2.43-12.39,4.34-24,7.9-35.57,12.13-4.39,2.69-8.74,5.41-13.09,8.15A96.49,96.49,0,0,0,473,645C487,639,504,632,518,625Z" transform="translate(-400.72 -456.43)"/><path class="cls-6" d="M583,599c-15.27,7.64-31.45,11.64-45.94,18.94,53.65-19.72,106.07-41,160.38-59.77-28.89,8.53-58.75,15-86.44,28.83C602,591,592,595,583,599Z" transform="translate(-400.72 -456.43)"/><path class="cls-7" d="M446.13,658.09l-.4.25c.09.22.17.44.27.66A8.66,8.66,0,0,1,446.13,658.09Z" transform="translate(-400.72 -456.43)"/><path class="cls-8" d="M446.13,658.09l-.4.25c.09.22.17.44.27.66A9.06,9.06,0,0,1,446.13,658.09Z" transform="translate(-400.72 -456.43)"/><path class="cls-9" d="M518,625c-14,7-31,14-45,20a96.91,96.91,0,0,1-9.65,2.28c-5.74,3.61-11.46,7.23-17.22,10.81a9.06,9.06,0,0,0-.13.91c-.1-.22-.18-.44-.27-.66-11.52,7.16-23.19,14.17-35.47,20.57l311.8.19c-53-25.36-107.89-48.89-163.42-70.11-8.13,3-16.14,6-23.64,10C530,622,523,622,518,625Z" transform="translate(-400.72 -456.43)"/><path class="cls-10" d="M450.47,655.39l-4.16,1.92a7,7,0,0,0-.18.79Z" transform="translate(-400.72 -456.43)"/><path class="cls-11" d="M400.72,679.1h9.17c12.41-6.45,24.21-13.52,35.84-20.75-.09-.22-.18-.43-.26-.65C417.89,670.45,400.72,679.1,400.72,679.1Z" transform="translate(-400.72 -456.43)"/><path class="cls-12" d="M445.73,658.35l.4-.25a7,7,0,0,1,.18-.79l-.84.39C445.55,657.92,445.64,658.13,445.73,658.35Z" transform="translate(-400.72 -456.43)"/><path class="cls-13" d="M485.25,639.78c5.19-2.21,10.52-4.5,15.77-6.83Q492.92,636.42,485.25,639.78Z" transform="translate(-400.72 -456.43)"/><path class="cls-14" d="M708.91,554.64c5.6-1.81,11.15-3.75,16.63-5.9Z" transform="translate(-400.72 -456.43)"/><path class="cls-15" d="M1226.39,679.1c-55.15-18.34-148.68-41-217.56-74.17-12.67-6.1,18.33-42.09,7.15-47.29-22.4-10.44-77.13-9.13-89.91-13.3,29.56-15.38,80.12-12.17,106.31-32.78-55.34-12-15.74,9.21-67.31-14.22,12-23.06,38.38-40.52,38.38-40.52-3-3.37-148.21,46.15-277.8,94.87-5.5,2.07-11.14,1.14-16.74,2.95-44.79,15.9-87.59,31.33-122.4,44.13-16.82,6.19-33.35,12.63-49.2,19.05-.78.38-1.55.77-2.31,1.18a26.74,26.74,0,0,1-7,2.63c-9.28,3.82-18.29,7.61-27,11.32-5.25,2.33-10.58,4.62-15.77,6.83-12.68,5.56-24.39,10.84-34.78,15.61l-4.34,2.71a8.86,8.86,0,0,0-.13.9c-.1-.22-.18-.43-.27-.65-11.63,7.23-23.43,14.3-35.84,20.75Z" transform="translate(-400.72 -456.43)"/><path class="cls-16" d="M446.13,658.1l-.4.25c.09.22.17.43.27.65A8.86,8.86,0,0,1,446.13,658.1Z" transform="translate(-400.72 -456.43)"/><path class="cls-17" d="M537.31,617.82q-4.71,1.9-9.34,3.81a26.74,26.74,0,0,0,7-2.63C535.76,618.59,536.53,618.2,537.31,617.82Z" transform="translate(-400.72 -456.43)"/><path class="cls-18" d="M408.9,679.1h-8.18S400.37,680.67,408.9,679.1Z" transform="translate(-400.72 -456.43)"/><path class="cls-19" d="M408.9,679.1h1l.57-.3Z" transform="translate(-400.72 -456.43)"/></svg>