<?xml version="1.0" encoding="UTF-8" standalone="no"?>
<!DOCTYPE svg PUBLIC "-//W3C//DTD SVG 1.1//EN" "http://www.w3.org/Graphics/SVG/1.1/DTD/svg11.dtd">
<svg width="100%" height="100%" viewBox="0 0 4784 1854" version="1.1" xmlns="http://www.w3.org/2000/svg" xmlns:xlink="http://www.w3.org/1999/xlink" xml:space="preserve" xmlns:serif="http://www.serif.com/" style="fill-rule:evenodd;clip-rule:evenodd;stroke-linejoin:round;stroke-miterlimit:2;">
    <g>
        <g transform="matrix(5.21146,0,0,4.6212,-44104.7,-20733.9)">
            <path d="M8852.76,4696.61L8783.2,4691.66L8783.17,4695.14L8783.19,4698.46L8783.36,4804.31L8798.52,4807.67L8824.47,4813.41L8848.27,4818.68L8852.76,4696.61Z" style="fill:rgb(234,106,94);fill-rule:nonzero;"/>
        </g>
        <g transform="matrix(5.21146,0,0,4.6212,-44104.7,-20733.9)">
            <path d="M9024.98,4686.74L8847.97,4699.45L8848,4705.69L8848.27,4818.68L9025.84,4810.67L9025.22,4710.47L9024.98,4686.74Z" style="fill:rgb(201,84,79);fill-rule:nonzero;"/>
        </g>
        <g transform="matrix(5.21146,0,0,4.6212,-44104.7,-20733.9)">
            <path d="M9025.22,4710.47L8996.77,4710.25L8952.19,4703.45L8848,4705.69L8847.97,4699.45L9024.98,4686.74L9025.22,4710.47Z" style="fill:rgb(161,67,63);fill-rule:nonzero;"/>
        </g>
        <g transform="matrix(5.21146,0,0,4.6212,-44104.7,-20733.9)">
            <path d="M8778.66,4690.37L8794.75,4646.34L8813.63,4606.22L8818.72,4613.66L8839.55,4649.27L8847.97,4699.45L8791.16,4695.46L8779.69,4695.03L8778.66,4690.37Z" style="fill:rgb(221,95,95);fill-rule:nonzero;"/>
        </g>
        <g transform="matrix(5.21146,0,0,4.6212,-44104.7,-20733.9)">
            <path d="M8823.12,4812.57L8803.78,4808.4L8801.02,4807.73L8801.02,4728.81L8807.61,4729.46L8823.12,4731.04L8823.12,4812.57Z" style="fill:rgb(92,92,92);fill-rule:nonzero;"/>
        </g>
        <g transform="matrix(5.21146,0,0,4.6212,-44104.7,-20733.9)">
            <path d="M8803.78,4808.4L8801.02,4807.73L8801.02,4728.81L8807.61,4729.46L8804.44,4732.36L8802.55,4745.81L8802.73,4755.03L8803.78,4808.4Z" style="fill:rgb(102,70,46);fill-rule:nonzero;"/>
        </g>
        <g transform="matrix(5.21146,0,0,4.6212,-44104.7,-20733.9)">
            <path d="M8821.77,4670.84L8809.77,4670.06L8806.99,4669.92L8806.81,4651.99L8813.44,4652.14L8821.68,4652.07L8821.77,4670.84Z" style="fill:rgb(127,87,57);fill-rule:nonzero;"/>
        </g>
        <g transform="matrix(5.21146,0,0,4.6212,-44104.7,-20733.9)">
            <path d="M8809.77,4670.06L8806.99,4669.92L8806.81,4651.99L8813.44,4652.14L8809.4,4652.89L8807.91,4658.04L8808.96,4668.48L8809.77,4670.06Z" style="fill:rgb(102,70,46);fill-rule:nonzero;"/>
        </g>
        <g transform="matrix(5.21146,0,0,4.6212,-44104.7,-20733.9)">
            <path d="M8776.95,4689.38L8779.49,4695.68L8783.2,4698.46L8783.17,4695.14L8781.12,4689.13L8795.93,4646.92L8817.64,4611.91L8811.77,4601.37L8790.45,4645.56L8776.95,4689.38Z" style="fill:rgb(107,70,45);fill-rule:nonzero;"/>
        </g>
        <g transform="matrix(5.21146,0,0,4.6212,-44104.7,-20733.9)">
            <path d="M8993.75,4602.52L8811.77,4601.37L8816.75,4615.64L8835.64,4651.22L8845.23,4701.5L8849.44,4703.22L9029.24,4698.08L9031.63,4695.14L9017.15,4642.34L8999.09,4606.25L8993.75,4602.52Z" style="fill:rgb(92,92,92);fill-rule:nonzero;"/>
        </g>
        <g transform="matrix(5.21146,0,0,4.6212,-44104.7,-20733.9)">
            <path d="M8919.75,4734.88L8884.81,4735.9L8884.42,4770.82L8915.86,4769.85L8919.35,4769.79L8919.75,4734.88Z" style="fill:rgb(229,229,225);fill-rule:nonzero;"/>
        </g>
        <g transform="matrix(5.21146,0,0,4.6212,-44104.7,-20733.9)">
            <path d="M8915.86,4769.85L8917.96,4767.62L8917.88,4745.88L8916.64,4738.22L8912.06,4735.11L8919.75,4734.88L8919.35,4769.79L8915.86,4769.85Z" style="fill:rgb(204,204,159);fill-rule:nonzero;"/>
        </g>
        <g transform="matrix(5.21146,0,0,4.6212,-44104.7,-20733.9)">
            <path d="M8996.11,4730.65L8987.54,4730.85L8961.16,4731.68L8960.77,4766.6L8990.48,4765.73L8995.71,4765.57L8996.11,4730.65Z" style="fill:rgb(227,227,227);fill-rule:nonzero;"/>
        </g>
    </g>
</svg>
