<svg id="_ÎÓÈ_1" data-name="—ÎÓÈ_1" xmlns="http://www.w3.org/2000/svg" xmlns:xlink="http://www.w3.org/1999/xlink" viewBox="0 0 9583.83 1978.28"><defs><style>.cls-1{fill:url(#linear-gradient);}.cls-2{fill:#c99089;}.cls-3{fill:#e9a7a0;}</style><linearGradient id="linear-gradient" x1="5086.76" y1="3863.5" x2="5086.76" y2="2838.71" gradientUnits="userSpaceOnUse"><stop offset="0" stop-color="#c2887e"/><stop offset="1" stop-color="#ffc3b8"/></linearGradient></defs><path class="cls-1" d="M8924.7,3044.74c-102.05-27.34-188-68-262.6-116.58-17.71-39.29-50.22-45.74-95.67-71.08-56.64-47.49-106.35-99.06-152.27-151.19,0-.06-.08-.09-.08-.13-30.59-45.94-56.34-74.24-78.51-92.76-52.57-63.8-102.22-125.22-154.76-177.61a.43.43,0,0,0,0,0c-55-217.49-217.17-199-307.91-274.05s-196.2,171.1-249.93,187.34-35.19,280.79-202.29,406.63c-144.63,108.92-102,122.71-164.53,156-92.47-69.52-186-216.92-280.81-382.56-21.47-66.85-43.05-50.59-122.6-205.75-56.77-110.74-127.76-93-220-194.23-7.06-9.13-59.11-91.11-66.19-99.69,0,0,0,0,0,0a189.26,189.26,0,0,0-23.54-27.34c-119.12-132.71-190.4-166-315.25-19.18-34.07,40.1-69.93,81.82-107.34,124.57-55.47,37.86-100.47,102.06-151.36,168.24-48.3,52-98.49,104.34-150.34,156.06,0,0-.06,0-.09.06-65.85,47.31-110.76,3.51-156,51.16q-46.52,42-94.41,82.33c-39,25.1-85,43.37-146.13,50.39-175.93,20.25-172.33,69.2-292.13,247.61-165.06,83.24-335,133.43-505.17,131.42-240.15-2.84-436.77-267.08-603.16-599.89-18.27-107.37-29.2-214.21-28.73-306.67,1.21-238.58-117.23-110.2-226.27-142.63-138.17-351.84-263-426.87-368.11-515.15-78.83-66.23-151,27.64-223.08,194.23-44,12-55.92,102.46-89.95,118.15-51.84,23.91-145.88,409.4-307,428.13s-181.27,256.18-310.09,300.62-155.51,3.92-298.08-61.59c-87.19-40.06-130.8-32.42-172.83-5-127.44-41.24-82.38-99.44-277.06-99.44-25.89,0-143.33,121.41-168.59,148.17-82.83,87.76-161.94-31.57-219.58,168.48s-274.92,102.9-372.13,306.84c-59.4,124.65-57.2,205-101.86,270.9L947,3282.62H9315.23C9315.23,3078.17,9007.14,3066.82,8924.7,3044.74Z" transform="translate(-274.91 -1408.54)"/><polygon class="cls-2" points="0 1978.28 9583.83 1978.28 9305.29 1849.26 8963.18 1749.36 8694.36 1764.96 8406.02 1661.95 8249.64 1522.34 8064.44 1501.26 7897.76 1415.34 7868.44 1346.65 7477.44 1290.47 7008.27 1014.21 6792.41 1040.73 6588.09 975.18 6255.66 762.91 5739.23 858.64 5251.72 1040.73 4365.34 960.14 3330.13 902.55 2927.45 862.8 2507.14 1000.16 2360.52 1000.16 2156.71 1134.39 1862.47 1060.58 1510.13 1300.64 1441.7 1325.07 1397.73 1402.86 1328.84 1402.86 1050.77 1581.05 654.88 1581.05 415.39 1759.23 244.36 1815.36 0 1978.28"/><path class="cls-3" d="M2918.19,2750.61q67.53,9.61,134.54,20.66l34.74-58.34c-41.24-37.07-83.19-73.76-123.79-110.68-48.76-44.36-95.94-89.61-145.6-133.56l-54.73,2-284.86,136,60.44,98.86C2665.93,2718.45,2792.71,2732.74,2918.19,2750.61Z" transform="translate(-274.91 -1408.54)"/><path class="cls-3" d="M2894,2849.54c-151.81-21.62-457.45-42.09-457.45-42.09l-134-71.29-453.23,114.49-30.53,52.45,245,96.52,142.38-86.68,776.76-24.3,13.83-23.28Q2945.54,2856.95,2894,2849.54Z" transform="translate(-274.91 -1408.54)"/><path class="cls-3" d="M3109.58,2561.47q21.93,19.94,44.31,39.84l88.43-148.57-241.55,9.07Q3055,2511.7,3109.58,2561.47Z" transform="translate(-274.91 -1408.54)"/><path class="cls-3" d="M1688.37,3190.2c-79.1-4.5-158.21-9.2-236.94-15.66q-54.18-4.47-108.45-9.31L979,3272.55l688.69-70,21-11.27C1688.56,3190.92,1688.48,3190.55,1688.37,3190.2Z" transform="translate(-274.91 -1408.54)"/><path class="cls-3" d="M7783.67,3092.75l-22.58,14.1-228.7,74.52c111.57,22.33,222.55,45.71,330.52,74.45l106-15.39C7905.62,3192.12,7842.64,3143.34,7783.67,3092.75Z" transform="translate(-274.91 -1408.54)"/><path class="cls-3" d="M8052.69,3149l149.8-189.37-46.94-99.16L7896.62,3022.2C7946.12,3065.58,7998.9,3107.53,8052.69,3149Z" transform="translate(-274.91 -1408.54)"/><polygon class="cls-3" points="7008.27 1014.21 6804.15 1039.29 6709.09 1176.17 5601.85 1978.28 5770.57 1978.28 6780.28 1420.11 7014.4 1017.81 7008.27 1014.21"/></svg>