<svg id="_ÎÓÈ_1" data-name="—ÎÓÈ_1" xmlns="http://www.w3.org/2000/svg" xmlns:xlink="http://www.w3.org/1999/xlink" viewBox="0 0 9583.83 3029.88"><defs><style>.cls-1{fill:url(#linear-gradient);}.cls-2{fill:#c99089;}.cls-3{fill:#e9a7a0;}.cls-4{fill:url(#linear-gradient-2);}.cls-5{fill:url(#linear-gradient-3);}.cls-6{fill:url(#linear-gradient-4);}.cls-7{fill:url(#linear-gradient-5);}.cls-8{fill:url(#linear-gradient-6);}.cls-9{fill:url(#linear-gradient-7);}.cls-10{fill:#c2948c;}.cls-11{fill:url(#linear-gradient-8);}.cls-12{fill:url(#linear-gradient-9);}.cls-13{fill:url(#linear-gradient-10);}.cls-14{fill:url(#linear-gradient-11);}.cls-15{fill:url(#linear-gradient-12);}.cls-16{fill:url(#linear-gradient-13);}.cls-17{fill:url(#linear-gradient-14);}.cls-18{fill:url(#linear-gradient-15);}.cls-19{fill:url(#linear-gradient-16);}.cls-20{fill:url(#linear-gradient-17);}.cls-21{fill:url(#linear-gradient-18);}.cls-22{fill:url(#linear-gradient-19);}.cls-23{fill:url(#linear-gradient-20);}.cls-24{fill:url(#linear-gradient-21);}.cls-25{fill:url(#linear-gradient-22);}.cls-26{fill:url(#linear-gradient-23);}.cls-27{fill:url(#linear-gradient-24);}.cls-28{fill:url(#linear-gradient-25);}.cls-29{fill:url(#linear-gradient-26);}.cls-30{fill:url(#linear-gradient-27);}.cls-31{fill:url(#linear-gradient-28);}.cls-32{fill:url(#linear-gradient-29);}.cls-33{fill:url(#linear-gradient-30);}.cls-34{fill:url(#linear-gradient-31);}.cls-35{fill:url(#linear-gradient-32);}.cls-36{fill:url(#linear-gradient-33);}.cls-37{fill:url(#linear-gradient-34);}.cls-38{fill:url(#linear-gradient-35);}.cls-39{fill:url(#linear-gradient-36);}.cls-40{fill:url(#linear-gradient-37);}.cls-41{fill:url(#linear-gradient-38);}.cls-42{fill:url(#linear-gradient-39);}.cls-43{fill:url(#linear-gradient-40);}.cls-44{fill:url(#linear-gradient-41);}</style><linearGradient id="linear-gradient" x1="5086.76" y1="3863.5" x2="5086.76" y2="2838.71" gradientUnits="userSpaceOnUse"><stop offset="0" stop-color="#c2887e"/><stop offset="1" stop-color="#ffc3b8"/></linearGradient><linearGradient id="linear-gradient-2" x1="2659.82" y1="1896.8" x2="2328.63" y2="1599.41" gradientUnits="userSpaceOnUse"><stop offset="0" stop-color="#464e5b"/><stop offset="1" stop-color="#99645a"/></linearGradient><linearGradient id="linear-gradient-3" x1="7789.03" y1="3348.98" x2="7861.37" y2="3172.15" xlink:href="#linear-gradient-2"/><linearGradient id="linear-gradient-4" x1="2021.09" y1="2572.27" x2="1741.24" y2="2361.63" xlink:href="#linear-gradient-2"/><linearGradient id="linear-gradient-5" x1="1905.19" y1="2496.72" x2="2113.21" y2="2779.02" gradientUnits="userSpaceOnUse"><stop offset="0" stop-color="#464e5b"/><stop offset="1" stop-color="#373a44"/></linearGradient><linearGradient id="linear-gradient-6" x1="5039.25" y1="3726.76" x2="5039.25" y2="708.8" gradientUnits="userSpaceOnUse"><stop offset="0" stop-color="#464e5b"/><stop offset="0.52" stop-color="#99645a"/><stop offset="0.87" stop-color="#9c675d"/><stop offset="1" stop-color="#ffc3b8"/></linearGradient><linearGradient id="linear-gradient-7" x1="4376.42" y1="2463.88" x2="4376.42" y2="881.66" gradientUnits="userSpaceOnUse"><stop offset="0" stop-color="#c2948c"/><stop offset="1" stop-color="#99645a"/></linearGradient><linearGradient id="linear-gradient-8" x1="3674.41" y1="1235.87" x2="5198.61" y2="1235.87" xlink:href="#linear-gradient-7"/><linearGradient id="linear-gradient-9" x1="3243.7" y1="1161.26" x2="5055.4" y2="1161.26" xlink:href="#linear-gradient-7"/><linearGradient id="linear-gradient-10" x1="5045.46" y1="2622.37" x2="6645.42" y2="2622.37" xlink:href="#linear-gradient-7"/><linearGradient id="linear-gradient-11" x1="4514.75" y1="2723.4" x2="5949.09" y2="2723.4" xlink:href="#linear-gradient-7"/><linearGradient id="linear-gradient-12" x1="3564.75" y1="2810.08" x2="3564.75" y2="838.5" xlink:href="#linear-gradient-2"/><linearGradient id="linear-gradient-13" x1="5604.98" y1="2810.09" x2="5604.98" y2="838.47" xlink:href="#linear-gradient-2"/><linearGradient id="linear-gradient-14" x1="4639.95" y1="910.78" x2="3823.8" y2="561.81" xlink:href="#linear-gradient-2"/><linearGradient id="linear-gradient-15" x1="4578.6" y1="1865.33" x2="6411.22" y2="1351.08" xlink:href="#linear-gradient-2"/><linearGradient id="linear-gradient-16" x1="6441.36" y1="3530.62" x2="6441.36" y2="1559.01" xlink:href="#linear-gradient-2"/><linearGradient id="linear-gradient-17" x1="5136.2" y1="2810.09" x2="5136.2" y2="838.48" xlink:href="#linear-gradient-2"/><linearGradient id="linear-gradient-18" x1="4143.37" y1="3595.5" x2="4143.37" y2="1442.19" xlink:href="#linear-gradient-2"/><linearGradient id="linear-gradient-19" x1="4752.77" y1="1001.5" x2="4702.37" y2="540.69" xlink:href="#linear-gradient-2"/><linearGradient id="linear-gradient-20" x1="7828.33" y1="3023.43" x2="7390.43" y2="2113.95" gradientUnits="userSpaceOnUse"><stop offset="0" stop-color="#46445b"/><stop offset="1" stop-color="#99645a"/></linearGradient><linearGradient id="linear-gradient-21" x1="6763.03" y1="2774.13" x2="6000.69" y2="2718.78" xlink:href="#linear-gradient-2"/><linearGradient id="linear-gradient-22" x1="6689" y1="2918.78" x2="6689" y2="2778.74" xlink:href="#linear-gradient-20"/><linearGradient id="linear-gradient-23" x1="6613.22" y1="3051.01" x2="6613.22" y2="2945.38" xlink:href="#linear-gradient-20"/><linearGradient id="linear-gradient-24" x1="8071.57" y1="3611.28" x2="8071.57" y2="3568.44" xlink:href="#linear-gradient-20"/><linearGradient id="linear-gradient-25" x1="2027.58" y1="2809.7" x2="2027.58" y2="2628.84" xlink:href="#linear-gradient-20"/><linearGradient id="linear-gradient-26" x1="1447.91" y1="2926.53" x2="1447.91" y2="2838.84" xlink:href="#linear-gradient-20"/><linearGradient id="linear-gradient-27" x1="4440.2" y1="2812.05" x2="4594.76" y2="1512.83" xlink:href="#linear-gradient-2"/><linearGradient id="linear-gradient-28" x1="3865.39" y1="2113.88" x2="4056.55" y2="2233.35" xlink:href="#linear-gradient-7"/><linearGradient id="linear-gradient-29" x1="4484.03" y1="3043.8" x2="4065.05" y2="1865.19" xlink:href="#linear-gradient-20"/><linearGradient id="linear-gradient-30" x1="3700.01" y1="2866.6" x2="3272.34" y2="2615.7" xlink:href="#linear-gradient-2"/><linearGradient id="linear-gradient-31" x1="4069.95" y1="2583.22" x2="4069.95" y2="3093.8" xlink:href="#linear-gradient-5"/><linearGradient id="linear-gradient-32" x1="4392.31" y1="3174.07" x2="4392.31" y2="2819.51" xlink:href="#linear-gradient-20"/><linearGradient id="linear-gradient-33" x1="4722.56" y1="2277.2" x2="4986.66" y2="3488.41" xlink:href="#linear-gradient-7"/><linearGradient id="linear-gradient-34" x1="3616.91" y1="1668.85" x2="3887.23" y2="2908.59" xlink:href="#linear-gradient-7"/><linearGradient id="linear-gradient-35" x1="2773.93" y1="1844.24" x2="3032.66" y2="3030.82" xlink:href="#linear-gradient-7"/><linearGradient id="linear-gradient-36" x1="5613.42" y1="1403.8" x2="5883.44" y2="2642.14" xlink:href="#linear-gradient-7"/><linearGradient id="linear-gradient-37" x1="4356.23" y1="1252.18" x2="4448.51" y2="916" gradientUnits="userSpaceOnUse"><stop offset="0" stop-color="#d96600"/><stop offset="0.39" stop-color="#fd8800"/><stop offset="1" stop-color="#ffea80"/></linearGradient><linearGradient id="linear-gradient-38" x1="5579.63" y1="2055.98" x2="5318.24" y2="1010.42" xlink:href="#linear-gradient-37"/><linearGradient id="linear-gradient-39" x1="5430.64" y1="1572.77" x2="5438.26" y2="1261.94" gradientUnits="userSpaceOnUse"><stop offset="0" stop-color="#d96600"/><stop offset="0.39" stop-color="#fd8800"/><stop offset="1" stop-color="#fedb2a"/></linearGradient><linearGradient id="linear-gradient-40" x1="5348.43" y1="1041.46" x2="5375.03" y2="1365.19" xlink:href="#linear-gradient-39"/><linearGradient id="linear-gradient-41" x1="5063.82" y1="3376.75" x2="5162.15" y2="3018.53" xlink:href="#linear-gradient-37"/></defs><path class="cls-1" d="M8924.7,3044.74c-102.05-27.34-188-68-262.6-116.58-17.71-39.29-50.22-45.74-95.67-71.08-56.64-47.49-106.35-99.06-152.27-151.19,0-.06-.08-.09-.08-.13-30.59-45.94-56.34-74.24-78.51-92.76-52.57-63.8-102.22-125.22-154.76-177.61a.43.43,0,0,0,0,0c-55-217.49-217.17-199-307.91-274.05s-196.2,171.1-249.93,187.34-35.19,280.79-202.29,406.63c-144.63,108.92-102,122.71-164.53,156-92.47-69.52-186-216.92-280.81-382.56-21.47-66.85-43.05-50.59-122.6-205.75-56.77-110.74-127.76-93-220-194.23-7.06-9.13-59.11-91.11-66.19-99.69,0,0,0,0,0,0a189.26,189.26,0,0,0-23.54-27.34c-119.12-132.71-190.4-166-315.25-19.18-34.07,40.1-69.93,81.82-107.34,124.57-55.47,37.86-100.47,102.06-151.36,168.24-48.3,52-98.49,104.34-150.34,156.06,0,0-.06,0-.09.06-65.85,47.31-110.76,3.51-156,51.16q-46.52,42-94.41,82.33c-39,25.1-85,43.37-146.13,50.39-175.93,20.25-172.33,69.2-292.13,247.61-165.06,83.24-335,133.43-505.17,131.42-240.15-2.84-436.77-267.08-603.16-599.89-18.27-107.37-29.2-214.21-28.73-306.67,1.21-238.58-117.23-110.2-226.27-142.63-138.17-351.84-263-426.87-368.11-515.15-78.83-66.23-151,27.64-223.08,194.23-44,12-55.92,102.46-89.95,118.15-51.84,23.91-145.88,409.4-307,428.13s-181.27,256.18-310.09,300.62-155.51,3.92-298.08-61.59c-87.19-40.06-130.8-32.42-172.83-5-127.44-41.24-82.38-99.44-277.06-99.44-25.89,0-143.33,121.41-168.59,148.17-82.83,87.76-161.94-31.57-219.58,168.48s-274.92,102.9-372.13,306.84c-59.4,124.65-57.2,205-101.86,270.9L947,3282.62H9315.23C9315.23,3078.17,9007.14,3066.82,8924.7,3044.74Z" transform="translate(-274.91 -720.53)"/><polygon class="cls-2" points="0 2666.29 9583.83 2666.29 9305.29 2537.26 8963.18 2437.37 8694.36 2452.96 8406.02 2349.95 8249.64 2210.34 8064.44 2189.26 7897.76 2103.35 7868.44 2034.65 7477.44 1978.48 7008.27 1702.21 6792.41 1728.73 6588.09 1663.18 6255.66 1450.92 5739.23 1546.65 5251.72 1728.73 4365.34 1648.14 3330.13 1590.56 2927.45 1550.8 2507.14 1688.16 2360.52 1688.16 2156.71 1822.39 1862.47 1748.59 1510.13 1988.64 1441.7 2013.07 1397.73 2090.86 1328.84 2090.86 1050.77 2269.05 654.88 2269.05 415.39 2447.23 244.36 2503.36 0 2666.29"/><path class="cls-3" d="M2918.19,2750.61q67.53,9.61,134.54,20.66l34.74-58.34c-41.24-37.07-83.19-73.76-123.79-110.68-48.76-44.36-95.94-89.61-145.6-133.56l-54.73,2-284.86,136,60.44,98.86C2665.93,2718.45,2792.71,2732.74,2918.19,2750.61Z" transform="translate(-274.91 -720.53)"/><path class="cls-3" d="M2894,2849.54c-151.81-21.62-457.45-42.09-457.45-42.09l-134-71.29-453.23,114.49-30.53,52.45,245,96.52,142.38-86.68,776.76-24.3,13.83-23.28Q2945.54,2856.95,2894,2849.54Z" transform="translate(-274.91 -720.53)"/><path class="cls-3" d="M3109.58,2561.47q21.93,19.94,44.31,39.84l88.43-148.57-241.55,9.07Q3055,2511.7,3109.58,2561.47Z" transform="translate(-274.91 -720.53)"/><path class="cls-3" d="M1688.37,3190.2c-79.1-4.5-158.21-9.2-236.94-15.66q-54.18-4.47-108.45-9.31L979,3272.55l688.69-70,21-11.27C1688.56,3190.92,1688.48,3190.55,1688.37,3190.2Z" transform="translate(-274.91 -720.53)"/><path class="cls-3" d="M7783.67,3092.75l-22.58,14.1-228.7,74.52c111.57,22.33,222.55,45.71,330.52,74.45l106-15.39C7905.62,3192.12,7842.64,3143.34,7783.67,3092.75Z" transform="translate(-274.91 -720.53)"/><path class="cls-3" d="M8052.69,3149l149.8-189.37-46.94-99.16L7896.62,3022.2C7946.12,3065.58,7998.9,3107.53,8052.69,3149Z" transform="translate(-274.91 -720.53)"/><polygon class="cls-3" points="7008.27 1702.21 6804.15 1727.29 6709.09 1864.17 5601.85 2666.29 5770.57 2666.29 6780.28 2108.11 7014.4 1705.82 7008.27 1702.21"/><polygon class="cls-4" points="3679.38 679.95 3006.9 1205.96 2940.25 1524.73 2762.56 1536.12 2267.52 1915.65 2248.73 2001.84 2161.61 2086.91 2068.69 2068.09 2019.52 2105.79 1654.45 2297.17 1065.11 2577.89 1035.77 2649.39 2487.97 2664.03 3541.14 2522.78 3987.6 878.18 3679.38 679.95"/><path class="cls-5" d="M8292.47,3188.33l-336.74-41.91-327.4-253.88-491.27-75.46-160.17-106.53c-78.57,243-167.11,485.46-240.74,728.94l400.91.22H8825.23Z" transform="translate(-274.91 -720.53)"/><polygon class="cls-6" points="2356.42 2220.74 2017.53 2210.1 1458.37 2535.35 1286.24 2623.09 1821.33 2574.36 2356.42 2220.74"/><polygon class="cls-7" points="2946.46 2187.81 2362.31 2202 2274.69 2295.4 1976.75 2353.08 1435.45 2637.36 818.87 2744.47 2056.6 2744.47 2946.46 2187.81"/><path class="cls-8" d="M7266.67,2814.48,7084,2779.13,6233,1848l-208.53-123.72-170.31-404.54,22.59-307-56-82.6-211.1,142.44-74.16-196.76-100.71-18.58L5293,1184.91l-94.39-135.49-34.45,15.17L5002.62,871.78l-92,32.27s-75.23,257.77-75.23,276.08c0,20.29,4.13-226.54-14.05-372.4l-83.15-87.2h-35.78L4493.27,949.45l-185-67.53-70.7,157.78-68.7-141.79-144.92,31-39.17,294.4,11.68,57.68-499.28,886.42-4.3,57.74-719.35,753.46-142.16,39.5L2282.44,3322l650.41,142.77,4863.21,3.05Z" transform="translate(-274.91 -720.53)"/><polygon class="cls-9" points="4118.31 393.38 2741.28 2542.26 3811.65 1422.63 3931.78 2136.19 4455.58 768.68 4696.61 1099.05 4586.89 1581.11 5167.18 2493.26 4848.88 1099.05 5709.65 1660.93 6011.56 2027.84 5800.18 1381.25 5387.52 1303.26 5374.62 768.68 4828.15 351.99 5190.65 1192.25 4628.86 548.2 4455.58 679.95 4344.45 462.36 4016.61 950.97 4118.31 393.38"/><path class="cls-10" d="M6014.12,3466.67c127.28-144.17,218.75-248,218.75-248l-45.23-362L6542,2380.29l-93-120.54-361.59,597,70.1,250s-119.27,157.67-271.64,359.9Z" transform="translate(-274.91 -720.53)"/><polygon class="cls-10" points="6583.44 2746.67 6666.63 2645.05 6596.27 2259.52 6677.32 2007.98 6583.01 1842.15 6490.72 2260.62 6586.22 2538.11 6450.23 2746.58 6583.44 2746.67"/><path class="cls-11" d="M5198.61,1049.42l-196-177.64-92,32.27,84.81,286.64-246.17,240.56c-2.07,56.22-1.76,112.46-.35,168.71l443.87-409.27Z" transform="translate(-274.91 -720.53)"/><polygon class="cls-12" points="3784.84 913.74 3483.64 982.8 3243.7 1408.78 3679.79 1077.7 3784.84 913.74"/><path class="cls-13" d="M5685,2786.33,5840,2458.41,5547.09,2607.8C5573.93,2640.47,5665.94,2759.5,5685,2786.33Z" transform="translate(-274.91 -720.53)"/><path class="cls-14" d="M4803.05,2261.54c-2.33-2.68-4.74-5.31-7.09-8l-10.57,29.23-270.64,910.44,330.94-376.16,129.87-372.5C4912.15,2386.33,4857.38,2324.13,4803.05,2261.54Z" transform="translate(-274.91 -720.53)"/><polygon class="cls-15" points="3655.32 2039.13 3941.53 1303.26 3512.52 1376.27 3359.33 1493.46 3187.97 1956.72 3460.56 2311.97 3655.32 2039.13"/><polygon class="cls-16" points="3791.86 2821.02 6546.54 2821.02 7510.14 2761.86 6972.28 2150.73 6426.11 2257.08 6332.68 2374.06 5413.67 2324.08 4888.49 1543.24 4629.7 1441.72 4629.7 922.13 4316.84 1526.05 4641.34 1728.48 4738.61 2023.65 4430.38 1831.74 3699.83 2491.61 3791.86 2821.02"/><polygon class="cls-17" points="4266.68 388.99 4339.55 567.91 4009.61 1071.29 4198.86 292.15 4266.68 388.99"/><path class="cls-18" d="M5543.23,1127.14,5509.51,1376s127.09,664.82,140,656.32,105.85-248.15,105.85-248.15Z" transform="translate(-274.91 -720.53)"/><path class="cls-19" d="M6127.49,1870.08,5879.88,2964.65l313.48-41.1,509.56-66.83,299.93-79-617.3-600.16s216.22,570.64,212.73,560.81S6235.61,2239,6235.61,2239Z" transform="translate(-274.91 -720.53)"/><polygon class="cls-20" points="4791.92 873.72 4924.67 1376.27 5480.47 2244.11 5336.34 1647.34 4791.92 873.72"/><path class="cls-21" d="M5849,3309.79c-728-36.46-1262.08-118.49-1563.63-288.63s-288.6-194.44-288.6-194.44l-25.67,590.46-642.58-310.52L3250,3006.87l-618.68,11.27-369.06,475.91,580.12,31,2341-58.94C5254.55,3358.61,6468.36,3340.81,5849,3309.79Z" transform="translate(-274.91 -720.53)"/><polygon class="cls-22" points="4675.68 318.64 4673.03 848.05 4764.31 531.41 4675.68 318.64"/><polygon class="cls-23" points="7096.75 2805.47 8317.31 2805.47 8330.92 2765.81 7881.94 2620.52 7667.59 2635.17 7187.41 2335.38 7121.28 2367.69 7156.3 2679.82 7096.75 2805.47"/><polygon class="cls-24" points="6185.8 2838.45 6063.45 2821.02 6282.98 2736.83 6515.85 2729.74 6750.37 2666.99 6926.32 2787.63 6185.8 2838.45"/><polygon class="cls-25" points="7247.1 2856.75 7335.68 2805.47 7206.8 2725.03 6750.37 2666.99 6534.77 2764.04 6446.79 2758.34 6063.45 2821.02 6042.33 2856.75 7247.1 2856.75"/><polygon class="cls-26" points="6343.67 3029.88 6872.71 3029.88 6882.77 2982.62 6715.21 2904.62 6494.86 2928.25 6343.67 3029.88"/><path class="cls-27" d="M7926.66,3602.71h289.83s-21.79-33.09-26.8-33.09-165.86-17.71-165.86-17.71Z" transform="translate(-274.91 -720.53)"/><polygon class="cls-28" points="2370.45 2773.52 2391.04 2718.36 2146.99 2562.72 1944.46 2559.05 1664.11 2729.83 1689.92 2773.52 2370.45 2773.52"/><polygon class="cls-29" points="1159.74 2908.99 1736.07 2908.99 1638.88 2851.09 1462.98 2805.01 1367.49 2824.89 1178.18 2867.64 1159.74 2908.99"/><polygon class="cls-30" points="6338.5 2503.33 4945.22 2634.83 4182.31 1884.67 4070.82 1854.02 3769.29 1920.86 4118.3 1192.25 3941.53 1303.26 3667.35 1675.54 3635.92 1886.04 3470.81 1942.4 3243.7 2250.76 3748.78 2627.4 3097.32 2449.52 2567.48 2804.55 2998.23 2896.11 5560.07 2896.11 5622.59 2821.02 6343.67 2561.02 6338.5 2503.33"/><polygon class="cls-31" points="4168.68 2186.18 4121.73 2136.19 3644.3 2097.56 4123.44 2413.05 4168.68 2186.18"/><polygon class="cls-32" points="4732.27 2768.84 5000.42 2796.11 4121.73 2136.19 3993.22 2221.73 4053.59 2370.57 3934.81 2356.03 3763.46 2717.12 4732.27 2768.84"/><polygon class="cls-33" points="3784.19 2584.09 3770.67 2542.26 3497.71 2512.32 3060.12 2857 3784.19 2584.09"/><polygon class="cls-34" points="5141.38 2896.11 5088.9 2826.52 4629.37 2668.59 3951.78 2685.07 3770.67 2542.26 3681.16 2563.71 3710.84 2611.75 3507.63 2572.87 2998.53 2896.11 5141.38 2896.11"/><polygon class="cls-35" points="5025.12 2932.97 5035.84 2871.85 4421.18 2736.8 4069.94 2784.1 3800.68 2896.11 3748.78 2934.58 5025.12 2932.97"/><path class="cls-36" d="M4903.77,1559.74s-339.56,545.82-346.25,567.09-130.69,342.68-130.69,342.68l219.64-234Z" transform="translate(-274.91 -720.53)"/><polygon class="cls-37" points="3721.51 560.49 3285.77 1246.77 3222.23 1446.9 3344.41 1342.48 3721.51 560.49"/><polygon class="cls-38" points="3222.23 1532.13 2580.44 2106.19 2484.95 2237.58 2356.42 2297.61 2653.32 2269.49 3222.23 1532.13"/><polygon class="cls-39" points="5800.18 1381.25 5800.18 1808.65 5604.97 2244.11 5702.56 1682.79 5800.18 1381.25"/><path class="cls-40" d="M4541.61,896.54l-48.34,52.91s-50.94,14.5-19.5,63.23c0,44.91-60.28,263.35-70,288.17s-35.56,44.9-90.86,21.27S4279,1185.93,4296.57,1167s41.22-36.34,92.58-62.92c37.68-19.5,51.1-45.49,38.53-78.57s-68.68-56.73,5-95.71C4444.43,872.5,4476.26,883.36,4541.61,896.54Z" transform="translate(-274.91 -720.53)"/><path class="cls-41" d="M5192.13,1014.93c54.51-104.06,219.55-24.86,192.07,26.72s233.35,163.65,78.91,204.46c99.46,33.79,171.24,132.72,87.94,194.16,22.29,60.12,42.1,199.14,77.63,229.87,327.6,364.27,259.79,485.44,70.86,453.29-172-29.26-112.95-329.65-149.3-366.35s-86.6-94.88-89.19-139.77c-137.95,36.41-240.45-138-211.66-180.31C4987.05,1447.07,5240.66,1276.88,5192.13,1014.93Z" transform="translate(-274.91 -720.53)"/><path class="cls-42" d="M5509.51,1427.88s-48.16,5.31-98.4-26.6-77.06-66.15-77.06-66.15,73.69,141.79,145.75,164.83S5545.06,1447.37,5509.51,1427.88Z" transform="translate(-274.91 -720.53)"/><path class="cls-43" d="M5315.47,1223.66c-14.47-10.64-38.92,26-6.33,35.51,48.35,14.14,102.59,7.09,124.82-7.5S5363.8,1259.14,5315.47,1223.66Z" transform="translate(-274.91 -720.53)"/><path class="cls-44" d="M5110.86,3478.53c-99.21-29.34-111.31-386.76,19.19-428.44,24.6-7.86,41.21-36.35,92.58-62.92" transform="translate(-274.91 -720.53)"/></svg>