<?xml version="1.0" encoding="UTF-8" standalone="no"?>
<!DOCTYPE svg PUBLIC "-//W3C//DTD SVG 1.1//EN" "http://www.w3.org/Graphics/SVG/1.1/DTD/svg11.dtd">
<svg width="100%" height="100%" viewBox="0 0 2481 3508" version="1.1" xmlns="http://www.w3.org/2000/svg" xmlns:xlink="http://www.w3.org/1999/xlink" xml:space="preserve" xmlns:serif="http://www.serif.com/" style="fill-rule:evenodd;clip-rule:evenodd;stroke-linejoin:round;stroke-miterlimit:2;">
    <g transform="matrix(4.16667,0,0,4.16667,-16422.8,-7527.52)">
        <path d="M4281.14,2327.52C4294.2,2331.58 4308.43,2335 4320.86,2335.7C4303.02,2319.36 4288.38,2295.13 4276.68,2269.45C4288.01,2272.95 4300.29,2275.86 4311.03,2276.46C4296.9,2263.53 4285.06,2244.96 4275.33,2224.91C4283.5,2227.21 4292.01,2229.02 4299.6,2229.44C4286.5,2217.44 4275.74,2199.69 4267.11,2180.84C4274.85,2183.18 4283.11,2185.07 4290.39,2185.48C4278.54,2174.63 4268.95,2158.23 4261.41,2141.08C4267.7,2142.98 4274.43,2144.54 4280.36,2144.88C4268.92,2134.4 4260.09,2117.48 4253.59,2100.82C4258.84,2102.52 4264.71,2104.02 4269.78,2104.29C4248.16,2084.52 4239.11,2033.83 4239.11,2033.83C4239.11,2033.83 4229.81,2077.84 4208.44,2104.29C4212.61,2104.46 4217.65,2103.38 4222.43,2101.9C4216.16,2116.73 4208.02,2132.28 4197.85,2144.88C4202.61,2145.06 4208.22,2144.04 4213.74,2142.52C4206.69,2157.63 4198.09,2172.77 4187.82,2185.48C4193.68,2185.72 4200.57,2184.47 4207.35,2182.61C4199.4,2199.15 4189.85,2215.52 4178.61,2229.44C4184.57,2229.68 4191.43,2228.62 4198.34,2226.92C4189.51,2244.47 4179.15,2261.64 4167.18,2276.46C4175.93,2276.82 4186.32,2274.82 4196.43,2271.91C4185.63,2294.43 4172.66,2316.76 4157.35,2335.7C4167.53,2336.11 4179.65,2333.72 4191.39,2330.3C4179.46,2355.07 4165.15,2379.59 4148.32,2400.43C4170.39,2401.32 4200.66,2388.51 4220.05,2378.89L4220.05,2421.27L4257.51,2421.27L4257.51,2378.02C4276.32,2386.89 4306.08,2399.1 4329.9,2400.43C4310.23,2382.43 4294.08,2355.79 4281.14,2327.52Z" style="fill:url(#_Linear1);"/>
    </g>
    <defs>
        <linearGradient id="_Linear1" x1="0" y1="0" x2="1" y2="0" gradientUnits="userSpaceOnUse" gradientTransform="matrix(2.16901e-05,496.211,496.211,-2.16901e-05,4239.11,2507.48)"><stop offset="0" style="stop-color:rgb(36,68,87);stop-opacity:1"/><stop offset="1" style="stop-color:rgb(23,45,59);stop-opacity:1"/></linearGradient>
    </defs>
</svg>
