<?xml version="1.0" encoding="UTF-8" standalone="no"?>
<!DOCTYPE svg PUBLIC "-//W3C//DTD SVG 1.1//EN" "http://www.w3.org/Graphics/SVG/1.1/DTD/svg11.dtd">
<svg width="100%" height="100%" viewBox="0 0 2481 3508" version="1.1" xmlns="http://www.w3.org/2000/svg" xmlns:xlink="http://www.w3.org/1999/xlink" xml:space="preserve" xmlns:serif="http://www.serif.com/" style="fill-rule:evenodd;clip-rule:evenodd;stroke-linejoin:round;stroke-miterlimit:2;">
    <g transform="matrix(4.32646,0,0,4.28122,-8146.6,-8167.66)">
        <path d="M2106.73,2457.61C2088.62,2463.25 2068.9,2467.99 2051.68,2468.95C2076.41,2446.32 2096.68,2412.73 2112.9,2377.16C2097.2,2382 2080.19,2386.04 2065.3,2386.87C2084.89,2368.95 2101.29,2343.22 2114.78,2315.44C2103.44,2318.63 2091.66,2321.13 2081.14,2321.71C2099.3,2305.1 2114.21,2280.49 2126.17,2254.38C2115.44,2257.6 2103.99,2260.23 2093.9,2260.8C2110.32,2245.77 2123.62,2223.04 2134.07,2199.27C2125.36,2201.91 2116.01,2204.07 2107.8,2204.53C2123.66,2190.02 2135.89,2166.57 2144.89,2143.48C2137.63,2145.84 2129.5,2147.91 2122.47,2148.3C2134.91,2136.92 2144.34,2118.15 2151.12,2100.09C2145.62,2101.93 2139.33,2103.58 2133.93,2103.89C2155.8,2083.87 2164.97,2032.56 2164.97,2032.56C2164.97,2032.56 2174.38,2077.11 2196.01,2103.89C2191.53,2104.06 2186.05,2102.82 2180.96,2101.18C2187.57,2117.31 2196.33,2134.52 2207.47,2148.3C2201.68,2148.54 2194.7,2147.02 2188.08,2144.98C2196.76,2165.55 2208.04,2187.09 2222.14,2204.53C2215.53,2204.8 2207.77,2203.38 2200.12,2201.27C2209.89,2222.21 2221.8,2243.18 2236.04,2260.8C2227.91,2261.13 2218.37,2259.41 2208.96,2256.82C2219.99,2279.74 2233.22,2302.44 2248.8,2321.71C2240.54,2322.05 2231.03,2320.59 2221.46,2318.22C2233.69,2342.54 2248.05,2366.34 2264.64,2386.87C2252.5,2387.36 2238.12,2384.59 2224.09,2380.57C2239.07,2411.78 2257.05,2442.7 2278.26,2468.95C2264.16,2469.52 2247.36,2466.21 2231.08,2461.47C2247.62,2495.8 2267.44,2529.77 2290.78,2558.66C2260.19,2559.88 2218.25,2542.13 2191.37,2528.81L2191.37,2587.53L2139.47,2587.53L2139.47,2527.59C2113.41,2539.89 2072.17,2556.8 2039.16,2558.66C2066.41,2533.71 2088.8,2496.79 2106.73,2457.61Z" style="fill:url(#_Linear1);"/>
    </g>
    <defs>
        <linearGradient id="_Linear1" x1="0" y1="0" x2="1" y2="0" gradientUnits="userSpaceOnUse" gradientTransform="matrix(-4.32082,-567.182,1224.94,-9.52994,2170.28,2589.32)"><stop offset="0" style="stop-color:rgb(30,66,87);stop-opacity:1"/><stop offset="0.33" style="stop-color:rgb(26,57,76);stop-opacity:1"/><stop offset="1" style="stop-color:rgb(21,46,62);stop-opacity:1"/></linearGradient>
    </defs>
</svg>
