<svg id="_ÎÓÈ_1" data-name="—ÎÓÈ_1" xmlns="http://www.w3.org/2000/svg" xmlns:xlink="http://www.w3.org/1999/xlink" viewBox="0 0 10091.33 1665.09"><defs><style>.cls-1{fill:url(#linear-gradient);}.cls-2{fill:url(#linear-gradient-2);}.cls-3{fill:url(#linear-gradient-3);}.cls-4{fill:url(#linear-gradient-4);}.cls-5{fill:url(#linear-gradient-5);}.cls-6{fill:url(#linear-gradient-6);}.cls-7{fill:url(#linear-gradient-7);}.cls-8{opacity:0.7;fill:url(#linear-gradient-8);}</style><linearGradient id="linear-gradient" x1="7483.54" y1="1673.56" x2="7483.54" y2="573.69" gradientUnits="userSpaceOnUse"><stop offset="0" stop-color="#3d5a68"/><stop offset="1" stop-color="#4d6470"/></linearGradient><linearGradient id="linear-gradient-2" x1="8491.34" y1="768.93" x2="9290.09" y2="114.22" gradientUnits="userSpaceOnUse"><stop offset="0" stop-color="#3d5a68"/><stop offset="1" stop-color="#7f7370"/></linearGradient><linearGradient id="linear-gradient-3" x1="5719.2" y1="1474.27" x2="7252.74" y2="745.84" xlink:href="#linear-gradient-2"/><linearGradient id="linear-gradient-4" x1="6903.67" y1="5372.26" x2="6903.67" y2="3999.62" gradientTransform="matrix(-1, 0, 0, 1, 8992.41, -3689.83)" gradientUnits="userSpaceOnUse"><stop offset="0" stop-color="#2d4f61"/><stop offset="1" stop-color="#254458"/></linearGradient><linearGradient id="linear-gradient-5" x1="1139.47" y1="794.63" x2="2096.66" y2="794.63" gradientUnits="userSpaceOnUse"><stop offset="0" stop-color="#254458"/><stop offset="1" stop-color="#5e676c"/></linearGradient><linearGradient id="linear-gradient-6" x1="2971.5" y1="1404.54" x2="4177.48" y2="1404.54" xlink:href="#linear-gradient-5"/><linearGradient id="linear-gradient-7" x1="8088.68" y1="5381.21" x2="8088.68" y2="3840.76" gradientTransform="translate(-0.01 -3689.83)" gradientUnits="userSpaceOnUse"><stop offset="0" stop-color="#294959"/><stop offset="1" stop-color="#254458"/></linearGradient><linearGradient id="linear-gradient-8" x1="7142.26" y1="1553.54" x2="9582.48" y2="267.27" xlink:href="#linear-gradient-5"/></defs><polygon class="cls-1" points="9662.04 171.82 9245.01 63.63 8433.07 681.41 7915.71 968.03 7191.1 664.69 6849.74 873.63 6224.92 1224.46 5707.73 1317.11 4875.74 1665.09 10091.33 1665.09 10091.32 0 9662.04 171.82"/><polygon class="cls-2" points="9245.01 63.63 8433.07 681.41 9076.55 332.68 9009.86 469.1 9243.86 287.4 9245.01 63.63"/><polygon class="cls-3" points="6400.23 1313.38 7193.6 848.73 7191.1 664.69 6849.74 873.63 6224.92 1224.46 5707.73 1317.11 6400.23 1313.38"/><polygon class="cls-4" points="1694.51 691.66 1139.47 616.33 844.01 126.18 448.6 94.5 0 299 0 1665.09 4177.48 1665.09 2971.5 1143.99 2308.32 1121 1694.51 691.66"/><polygon class="cls-5" points="2096.66 972.94 1694.51 691.66 1139.47 616.33 1556.59 755.82 1397.11 759.69 1649.83 819.77 2096.66 972.94"/><polygon class="cls-6" points="4177.48 1665.09 3002.57 1261.55 3061.46 1247.33 2971.5 1143.99 4177.48 1665.09 4177.48 1665.09"/><polygon class="cls-7" points="7008.06 1221.57 8593.12 982.17 9717.64 173.6 10091.32 341.32 10091.33 1665.09 6086 1665.09 7008.06 1221.57"/><polygon class="cls-8" points="8593.12 982.17 9717.64 173.6 9718.33 444.79 8650.32 1143.2 8009.93 1220.12 8518.92 1049.19 7056.26 1214.29 8593.12 982.17"/></svg>