<?xml version="1.0" encoding="UTF-8" standalone="no"?>
<!DOCTYPE svg PUBLIC "-//W3C//DTD SVG 1.1//EN" "http://www.w3.org/Graphics/SVG/1.1/DTD/svg11.dtd">
<svg width="100%" height="100%" viewBox="0 0 9449 3508" version="1.1" xmlns="http://www.w3.org/2000/svg" xmlns:xlink="http://www.w3.org/1999/xlink" xml:space="preserve" xmlns:serif="http://www.serif.com/" style="fill-rule:evenodd;clip-rule:evenodd;stroke-linejoin:round;stroke-miterlimit:2;">
    <g transform="matrix(7.60794,0,0,6.85781,-224.033,-1229.91)">
        <clipPath id="_clip1">
            <rect x="371.408" y="191.607" width="660.801" height="231.71"/>
        </clipPath>
        <g clip-path="url(#_clip1)">
            <path d="M909.489,300.303C887.162,284.332 883.373,271.544 874.394,271.544C865.415,271.544 863.055,275.379 856.011,266.885C848.966,258.391 851.151,261.322 843.556,261.322C835.962,261.322 832.714,268.291 828.223,271.544C823.732,274.797 800.256,253.886 795.669,253.886C791.082,253.886 791.544,252.391 788.909,253.886C786.273,255.381 778.631,236.666 774.927,236.666C771.222,236.666 763.227,223.675 759.983,221.808C756.739,219.94 759.063,221.49 754.273,223.675C749.484,225.861 738.928,229.495 738.928,231.451C733.807,231.451 729.972,224.164 728.073,221.808C726.174,219.452 726.831,216.193 722.697,216.193C719.94,216.193 717.56,215.072 715.555,212.831C713.066,211.687 710.836,211.687 708.865,212.831C705.91,214.546 690.553,221.073 688.729,218.633C686.905,216.193 684.058,209.399 678.976,209.399C675.588,209.399 672.513,207.96 669.751,205.082C663.583,195.27 659.268,190.817 656.805,191.722C653.111,193.079 649.036,195.104 646.86,198.071C644.686,201.039 644.417,203.315 642.797,205.082C641.178,206.85 637.394,207.795 636.492,211.227C635.591,214.658 628.317,211.59 624.829,216.193C621.341,220.797 611.081,223.675 609.577,223.675C608.072,223.675 605.793,226.425 602.084,229.381C599.612,231.351 592.618,231.351 581.104,229.381C574.648,232.111 570.69,234.54 569.231,236.666C567.043,239.857 551.76,245.716 549.941,247.083C548.122,248.45 542.286,246.72 540.417,250.303C538.548,253.886 529.105,253.886 526.775,253.886C524.444,253.886 508.434,265.2 504.984,261.322C501.535,257.444 501.572,259.507 499.213,257.444C496.855,255.381 478.049,249.44 474.21,255.381C470.371,261.322 462.961,259.511 458.542,261.322C454.122,263.134 449.983,270.097 446.411,268.41C442.839,266.723 425.446,275.542 423.162,275.542L404.46,275.542C401.207,275.542 384.311,278.444 379.39,281.066C374.47,283.688 370.932,289.403 365.2,289.403C359.467,289.403 348.563,304.104 342.798,300.303C337.033,296.501 332.261,296.101 326.118,295.822C323.003,295.681 318.889,291.485 316.955,291.841C315.02,292.197 309.523,295.937 304.932,298.12C300.341,300.303 289.597,311.264 286.189,311.853C275.37,313.725 267.818,343.46 261.556,340.178C255.293,336.895 254.302,337.833 249.798,333.497C246.462,330.285 239.883,327.181 236.657,326.065C235.638,325.712 228.754,311.778 227.135,311.853C218.369,312.262 212.325,306.424 206.692,305.025C204.577,304.5 201.573,295.822 199.76,295.822C196.944,295.822 176.477,304.925 171.766,302.82C168.304,301.273 164.614,307.462 161.295,307.462C157.569,307.462 158.602,317.256 148.923,317.256C145.229,317.256 139.494,324.478 127.234,326.065C107.376,328.636 80.48,352.372 77.587,352.372C71.857,352.372 77.242,374.256 98.457,397.8C123.346,425.422 218.836,415.171 210.071,420.455C199.247,426.979 473.292,422.35 1032.21,406.566C1016.49,377.312 1003.45,358.121 993.087,348.992C977.542,335.299 960.176,308.113 948.666,308.113C937.155,308.113 931.816,316.273 909.489,300.303Z" style="fill:url(#_Radial2);fill-rule:nonzero;"/>
        </g>
    </g>
    <g transform="matrix(7.65127,0,0,43.3749,-238.674,-14724.1)">
        <clipPath id="_clip3">
            <rect x="371.408" y="374.878" width="660.801" height="48.439"/>
        </clipPath>
        <g clip-path="url(#_clip3)">
            <path d="M909.489,300.303C887.162,284.332 883.373,271.544 874.394,271.544C865.415,271.544 863.055,275.379 856.011,266.885C848.966,258.391 851.151,261.322 843.556,261.322C835.962,261.322 832.714,268.291 828.223,271.544C823.732,274.797 800.256,253.886 795.669,253.886C791.082,253.886 791.544,252.391 788.909,253.886C786.273,255.381 778.631,236.666 774.927,236.666C771.222,236.666 763.227,223.675 759.983,221.808C756.739,219.94 759.063,221.49 754.273,223.675C749.484,225.861 738.928,229.495 738.928,231.451C733.807,231.451 729.972,224.164 728.073,221.808C726.174,219.452 726.831,216.193 722.697,216.193C719.94,216.193 717.56,215.072 715.555,212.831C713.066,211.687 710.836,211.687 708.865,212.831C705.91,214.546 690.553,221.073 688.729,218.633C686.905,216.193 684.058,209.399 678.976,209.399C675.588,209.399 672.513,207.96 669.751,205.082C663.583,195.27 659.268,190.817 656.805,191.722C653.111,193.079 649.036,195.104 646.86,198.071C644.686,201.039 644.417,203.315 642.797,205.082C641.178,206.85 637.394,207.795 636.492,211.227C635.591,214.658 628.317,211.59 624.829,216.193C621.341,220.797 611.081,223.675 609.577,223.675C608.072,223.675 605.793,226.425 602.084,229.381C599.612,231.351 592.618,231.351 581.104,229.381C574.648,232.111 570.69,234.54 569.231,236.666C567.043,239.857 551.76,245.716 549.941,247.083C548.122,248.45 542.286,246.72 540.417,250.303C538.548,253.886 529.105,253.886 526.775,253.886C524.444,253.886 508.434,265.2 504.984,261.322C501.535,257.444 501.572,259.507 499.213,257.444C496.855,255.381 478.049,249.44 474.21,255.381C470.371,261.322 462.961,259.511 458.542,261.322C454.122,263.134 449.983,270.097 446.411,268.41C442.839,266.723 425.446,275.542 423.162,275.542L404.46,275.542C401.207,275.542 384.311,278.444 379.39,281.066C374.47,283.688 370.932,289.403 365.2,289.403C359.467,289.403 348.563,304.104 342.798,300.303C337.033,296.501 332.261,296.101 326.118,295.822C323.003,295.681 318.889,291.485 316.955,291.841C315.02,292.197 309.523,295.937 304.932,298.12C300.341,300.303 289.597,311.264 286.189,311.853C275.37,313.725 267.818,343.46 261.556,340.178C255.293,336.895 254.302,337.833 249.798,333.497C246.462,330.285 239.883,327.181 236.657,326.065C235.638,325.712 228.754,311.778 227.135,311.853C218.369,312.262 212.325,306.424 206.692,305.025C204.577,304.5 201.573,295.822 199.76,295.822C196.944,295.822 176.477,304.925 171.766,302.82C168.304,301.273 164.614,307.462 161.295,307.462C157.569,307.462 158.602,317.256 148.923,317.256C145.229,317.256 139.494,324.478 127.234,326.065C107.376,328.636 80.48,352.372 77.587,352.372C71.857,352.372 77.242,374.256 98.457,397.8C123.346,425.422 221.572,402.215 212.807,407.499C201.983,414.023 467.549,410.529 1032.21,406.566C1030.96,377.312 1024.27,357.843 1013.9,348.714C998.36,335.021 960.176,308.113 948.666,308.113C937.155,308.113 931.816,316.273 909.489,300.303Z" style="fill:url(#_Radial4);fill-rule:nonzero;"/>
        </g>
    </g>
    <defs>
        <radialGradient id="_Radial2" cx="0" cy="0" r="1" gradientUnits="userSpaceOnUse" gradientTransform="matrix(-73.8298,276.58,-276.58,-73.8298,617.547,142.047)"><stop offset="0" style="stop-color:rgb(234,230,227);stop-opacity:1"/><stop offset="0.58" style="stop-color:rgb(239,229,222);stop-opacity:1"/><stop offset="1" style="stop-color:rgb(241,229,219);stop-opacity:1"/></radialGradient>
        <radialGradient id="_Radial4" cx="0" cy="0" r="1" gradientUnits="userSpaceOnUse" gradientTransform="matrix(-73.8298,276.58,-276.58,-73.8298,617.547,142.047)"><stop offset="0" style="stop-color:rgb(234,230,227);stop-opacity:1"/><stop offset="0.58" style="stop-color:rgb(239,229,222);stop-opacity:1"/><stop offset="1" style="stop-color:rgb(241,229,219);stop-opacity:1"/></radialGradient>
    </defs>
</svg>
