<?xml version="1.0" encoding="UTF-8" standalone="no"?>
<!DOCTYPE svg PUBLIC "-//W3C//DTD SVG 1.1//EN" "http://www.w3.org/Graphics/SVG/1.1/DTD/svg11.dtd">
<svg width="100%" height="100%" viewBox="0 0 9449 3508" version="1.1" xmlns="http://www.w3.org/2000/svg" xmlns:xlink="http://www.w3.org/1999/xlink" xml:space="preserve" xmlns:serif="http://www.serif.com/" style="fill-rule:evenodd;clip-rule:evenodd;stroke-linejoin:round;stroke-miterlimit:2;">
    <g id="g17" transform="matrix(7.58356,0,0,6.85781,81.5504,-617.906)">
        <clipPath id="_clip1">
            <rect x="382.643" y="120.133" width="529.807" height="480.054"/>
        </clipPath>
        <g clip-path="url(#_clip1)">
            <g id="g15" transform="matrix(1.11879,0,0,1.08968,-28.3582,-107.781)">
                <clipPath id="_clip2">
                    <rect x="101.482" y="209.157" width="921.921" height="214.16"/>
                </clipPath>
                <g clip-path="url(#_clip2)">
                    <path id="path13" d="M909.489,300.303C887.162,284.332 888.999,261.001 880.02,261.001C871.041,261.001 868.681,264.836 861.637,256.342C854.592,247.848 856.777,250.779 849.182,250.779C841.588,250.779 838.34,257.748 833.849,261.001C829.358,264.254 805.882,243.343 801.295,243.343C796.708,243.343 793.543,240.234 790.908,241.729C788.273,243.224 780.63,224.509 776.926,224.509C773.221,224.509 763.227,223.675 759.983,221.808C756.739,219.94 759.063,221.49 754.273,223.675C749.484,225.861 738.928,229.495 738.928,231.451C733.807,231.451 729.972,224.164 728.073,221.808C726.174,219.452 726.831,216.193 722.697,216.193C719.94,216.193 717.56,215.072 715.555,212.831C713.066,211.687 712.953,214.427 710.982,215.571C708.027,217.286 691.007,230.45 689.183,228.01C687.359,225.57 684.512,218.776 679.43,218.776C676.042,218.776 672.967,217.337 670.205,214.459C664.037,204.647 659.004,211.285 656.541,212.19C652.847,213.547 649.892,211.842 647.716,214.809C645.542,217.777 643.626,218.363 642.006,220.13C640.387,221.898 635.93,221.739 635.028,225.171C634.127,228.602 625.348,212.12 621.86,216.723C618.372,221.327 610.598,217.855 609.094,217.855C607.589,217.855 603.171,225.933 599.462,228.889C596.99,230.859 592.135,225.531 580.621,223.561C574.165,226.291 564.131,227.426 562.672,229.552C560.484,232.743 547.524,224.206 545.705,225.573C543.886,226.94 538.05,225.21 536.181,228.793C534.312,232.376 524.869,232.376 522.539,232.376C520.208,232.376 507.538,240.685 504.088,236.807C500.639,232.929 500.676,234.992 498.317,232.929C495.959,230.866 475.219,228.226 471.38,234.167C467.541,240.108 460.131,238.297 455.712,240.108C451.292,241.92 447.153,248.883 443.581,247.196C440.009,245.509 425.877,244.26 423.593,244.26C421.308,244.26 408.552,234.31 404.891,244.26C403.661,247.602 384.742,247.162 379.821,249.784C374.901,252.406 370.932,289.403 365.2,289.403C359.467,289.403 348.563,304.104 342.798,300.303C337.033,296.501 332.261,296.101 326.118,295.822C323.003,295.681 318.889,291.485 316.955,291.841C315.02,292.197 309.523,295.937 304.932,298.12C300.341,300.303 289.597,311.264 286.189,311.853C275.37,313.725 267.818,343.46 261.556,340.178C255.293,336.895 254.302,337.833 249.798,333.497C246.462,330.285 239.883,327.181 236.657,326.065C235.638,325.712 228.754,311.778 227.135,311.853C218.369,312.262 212.325,306.424 206.692,305.025C204.577,304.5 201.573,295.822 199.76,295.822C196.944,295.822 176.477,304.925 171.766,302.82C168.304,301.273 164.614,307.462 161.295,307.462C157.569,307.462 158.602,317.256 148.923,317.256C145.229,317.256 139.494,324.478 127.234,326.065C107.376,328.636 80.48,352.372 77.587,352.372C71.857,352.372 77.242,374.256 98.457,397.8C123.346,425.422 218.836,415.171 210.071,420.455C199.247,426.979 473.292,422.35 1032.21,406.566C1016.49,377.312 1003.45,358.121 993.087,348.992C977.542,335.299 960.176,308.113 948.666,308.113C937.155,308.113 931.816,316.273 909.489,300.303Z" style="fill:url(#_Linear3);fill-rule:nonzero;"/>
                </g>
            </g>
            <g transform="matrix(0.131666,0,0,0.145819,17.5291,139.482)">
                <rect x="514.168" y="1294.52" width="7825.96" height="2034.49" style="fill:url(#_Linear4);"/>
            </g>
        </g>
    </g>
    <g id="g26">
    </g>
    <defs>
        <linearGradient id="_Linear3" x1="0" y1="0" x2="1" y2="0" gradientUnits="userSpaceOnUse" gradientTransform="matrix(4.67358,-345.498,304.304,5.30626,602.015,491.993)"><stop offset="0" style="stop-color:rgb(147,160,167);stop-opacity:1"/><stop offset="1" style="stop-color:rgb(255,222,206);stop-opacity:1"/></linearGradient>
        <linearGradient id="_Linear4" x1="0" y1="0" x2="1" y2="0" gradientUnits="userSpaceOnUse" gradientTransform="matrix(-54.0308,3431.06,-3436.22,-53.9497,4836.75,-1014.86)"><stop offset="0" style="stop-color:rgb(255,222,206);stop-opacity:1"/><stop offset="0.41" style="stop-color:rgb(201,191,187);stop-opacity:1"/><stop offset="1" style="stop-color:rgb(147,160,167);stop-opacity:1"/></linearGradient>
    </defs>
</svg>
