<svg id="_ÎÓÈ_1" data-name="—ÎÓÈ_1" xmlns="http://www.w3.org/2000/svg" xmlns:xlink="http://www.w3.org/1999/xlink" viewBox="0 0 9009.04 3703.26"><defs><style>.cls-1{opacity:0.16;fill:url(#linear-gradient);}.cls-2{opacity:0.4;fill:url(#radial-gradient);}.cls-3{opacity:0.7;fill:url(#radial-gradient-2);}.cls-4{fill:url(#radial-gradient-3);}.cls-5{fill:url(#radial-gradient-4);}.cls-6{fill:#fff;opacity:0.1;}</style><linearGradient id="linear-gradient" x1="5812.66" y1="1958.42" x2="5812.66" y2="1371.08" gradientTransform="matrix(-1, 0, 0, 1, 9421.56, -869.77)" gradientUnits="userSpaceOnUse"><stop offset="0" stop-color="#e8f4ff"/><stop offset="1" stop-color="#aacdf0"/></linearGradient><radialGradient id="radial-gradient" cx="3997.64" cy="1923.27" r="1184.84" gradientTransform="translate(-5234.22 -3338.53) scale(2.21 2.53)" xlink:href="#linear-gradient"/><radialGradient id="radial-gradient-2" cx="9116.4" cy="1991.73" r="1195.59" gradientTransform="matrix(-2.21, 0, 0, 2.53, 23775.16, -3338.53)" xlink:href="#linear-gradient"/><radialGradient id="radial-gradient-3" cx="9116.4" cy="2057.33" r="1189.33" gradientTransform="matrix(-2.21, 0, 0, 2.53, 23775.16, -3338.53)" gradientUnits="userSpaceOnUse"><stop offset="0" stop-color="#d1e8ff"/><stop offset="1" stop-color="#91beed"/></radialGradient><radialGradient id="radial-gradient-4" cx="2223.45" cy="2264.98" r="1210.77" gradientTransform="translate(-1309.55 -3338.53) scale(2.21 2.53)" gradientUnits="userSpaceOnUse"><stop offset="0" stop-color="#b6cfe7"/><stop offset="1" stop-color="#77ade5"/></radialGradient></defs><polygon class="cls-1" points="7217.81 2629.2 0 2629.2 0 0 712.95 450.55 1245.63 237.85 1955.53 739.28 2368.71 438.67 2958.78 314.34 4099.51 599.57 5245.34 372.55 6640.7 789.54 7217.79 450.55 7217.81 2629.2"/><polygon class="cls-2" points="7217.81 828.55 6913.46 558.31 6104.95 1021.07 5062.79 654.36 3789.33 1082.18 2285.42 584.5 1146.41 1038.53 0.01 868.6 0 2490.94 7217.81 2490.94 7217.81 828.55"/><polygon class="cls-3" points="0 594.09 870.82 1229.44 1879.15 574.75 2529.72 956.01 3611.61 1495.39 4537.47 1050.42 5041.78 1337.79 5934.98 729.6 7217.79 1474.74 7217.81 2820.68 0 2820.68 0 594.09"/><polygon class="cls-4" points="0 1235.7 892.47 829.13 1820.01 1342.55 2917.86 1756.43 3822.14 1108.99 4734.28 1757.24 6775.84 941.78 7217.79 1275.75 7217.81 2898.09 0 2898.09 0 1235.7"/><polygon class="cls-5" points="7217.81 3703.26 0 3703.26 0 1074.06 712.95 1524.63 1054.17 1314.59 1955.53 1813.35 2683.78 1524.63 2958.78 1388.41 4099.51 1673.65 5245.34 1446.62 6640.7 1863.61 7217.79 1524.63 7217.81 3703.26"/><line class="cls-6" x1="6138.17" y1="1314.59" x2="6138.19" y2="1702.75"/><path class="cls-6" d="M7838.28,2564.53" transform="translate(-1954.72 -869.77)"/><path class="cls-6" d="M6983.22,3178" transform="translate(-1954.72 -869.77)"/><line class="cls-6" x1="2285.42" y1="3107.26" x2="3613.87" y2="2602.53"/><path class="cls-6" d="M5203.93,3724.72" transform="translate(-1954.72 -869.77)"/><path class="cls-6" d="M7057.45,3371.09" transform="translate(-1954.72 -869.77)"/><line class="cls-6" x1="9009.04" y1="1471.47" x2="9009.02" y2="1859.63"/><path class="cls-6" d="M11218.36,2721.4" transform="translate(-1954.72 -869.77)"/><path class="cls-6" d="M4274.3,3166" transform="translate(-1954.72 -869.77)"/><line class="cls-6" x1="3225.29" y1="2647.16" x2="2786.66" y2="2425.48"/><path class="cls-6" d="M4861.78,3406.12" transform="translate(-1954.72 -869.77)"/><path class="cls-6" d="M4249.79,3250.8" transform="translate(-1954.72 -869.77)"/></svg>