<svg id="_ÎÓÈ_1" data-name="—ÎÓÈ_1" xmlns="http://www.w3.org/2000/svg" viewBox="0 0 9367.99 1103.42"><defs><style>.cls-1{fill:#d0ec85;}.cls-2{fill:#d8ef9c;}.cls-3{fill:#b3d963;}.cls-4{fill:#c0e55c;}.cls-5{fill:#9fcf3b;}.cls-6{fill:#aad451;}.cls-7{fill:#9dce37;}.cls-8{fill:#acd555;}.cls-9{fill:#587c1c;}.cls-10{fill:#4e6419;}.cls-11{fill:#537216;}.cls-12{fill:#597d1f;}.cls-13{fill:#6a8a35;}.cls-14{fill:#3e5605;}.cls-15{fill:#f3ff70;}.cls-16{fill:#465d0f;}</style></defs><polygon class="cls-1" points="0 129.23 1235.99 50.71 2399.3 174.11 3906.29 84.36 5241.42 308.74 6601.86 13.82 7272.75 0 8480.15 140.46 9367.99 60.52 9367.99 1103.42 0 1103.42 0 129.23"/><polygon class="cls-2" points="0 331.74 1168.75 234.98 2335.33 338.64 3108.67 338.64 3412.72 195.81 3463.38 190.05 3492.05 292.56 3414.91 363.98 3445.77 398.54 3646.25 322.52 4083.59 196.96 4258.75 221.15 4622.28 376.65 3135.11 615.08 0 587.44 0 331.74"/><polygon class="cls-3" points="2974.32 558.63 4316.09 271.77 5862.27 189.57 7706.81 221.15 7739.86 1006.68 2974.32 1006.68 2974.32 558.63"/><polygon class="cls-4" points="6355.26 439.07 5358.91 356.15 4656.98 343.82 4303.37 354.2 4044.35 409.29 3971.24 428.49 3999.32 456.13 4224.06 476.85 4265.37 509.68 3564.5 672.32 4630.25 682.69 6355.26 439.07"/><polygon class="cls-5" points="0 535.18 442.86 463.03 1645.79 421.61 2544.71 421.61 4210.33 566.6 5519.05 804.82 7197.89 1103.42 0 1103.42 0 535.18"/><polygon class="cls-6" points="91.52 830.72 160.84 825.54 107.81 590.77 56.17 526.04 3.63 534.6 34.4 590.77 91.52 830.72"/><polygon class="cls-6" points="228.3 820.92 298.25 815.75 246.16 577.04 189.94 504.24 139.69 512.43 173.27 576.95 228.3 820.92"/><polygon class="cls-6" points="369.22 812.3 439.81 807.11 388.63 564.49 327.02 481.9 279.5 489.64 316.24 564.33 369.22 812.3"/><polygon class="cls-6" points="513.98 804.86 585.18 799.67 534.95 553.12 469.44 462.1 442.86 463.03 422.89 466.27 463.05 552.88 513.98 804.86"/><polygon class="cls-6" points="662.24 798.6 734.07 793.42 684.77 542.92 625.07 456.75 576.73 458.41 613.36 542.62 662.24 798.6"/><polygon class="cls-6" points="813.69 793.52 886.13 788.34 837.75 533.92 782.81 451.32 734.13 453 766.88 533.52 813.69 793.52"/><polygon class="cls-6" points="968 789.62 1041.05 784.44 993.63 526.09 942.5 445.82 893.76 447.5 923.25 525.62 968 789.62"/><polygon class="cls-6" points="1124.89 786.9 1198.57 781.71 1152.07 519.43 1103.89 440.25 1055.38 441.93 1082.18 518.9 1124.89 786.9"/><polygon class="cls-6" points="1283.99 785.35 1358.31 780.17 1312.72 513.96 1266.8 434.65 1218.78 436.3 1243.34 513.35 1283.99 785.35"/><polygon class="cls-6" points="1445.03 785 1519.96 779.82 1475.32 509.68 1430.98 428.99 1383.78 430.61 1406.44 508.98 1445.03 785"/><polygon class="cls-6" points="1607.66 785.84 1683.22 780.65 1639.5 506.58 1596.29 423.3 1550.14 424.89 1571.13 505.81 1607.66 785.84"/><polygon class="cls-6" points="1771.58 787.84 1847.78 782.66 1804.98 504.67 1764.45 421.61 1718.27 421.61 1737.1 503.82 1771.58 787.84"/><polygon class="cls-6" points="1936.48 791.04 2013.29 785.86 1971.43 503.93 1933.86 421.61 1887.88 421.61 1904.05 503 1936.48 791.04"/><polygon class="cls-6" points="2102.03 795.43 2179.45 790.25 2138.53 504.37 2103.43 421.61 2057.9 421.61 2071.66 503.39 2102.03 795.43"/><polygon class="cls-6" points="2267.9 801 2345.95 795.83 2305.93 506.03 2272.97 421.61 2228.14 421.61 2239.6 504.94 2267.9 801"/><polygon class="cls-6" points="2433.81 807.77 2512.46 802.59 2473.38 508.86 2442.26 421.61 2398.4 421.61 2407.54 507.7 2433.81 807.77"/><polygon class="cls-6" points="2599.4 815.71 2678.69 810.54 2640.53 512.88 2613.06 427.54 2568.62 423.67 2575.18 511.64 2599.4 815.71"/><polygon class="cls-6" points="2764.38 825.29 2844.29 820.11 2807.07 518.53 2785.28 442.54 2738.83 438.5 2742.22 517.22 2764.38 825.29"/><polygon class="cls-6" points="2928.41 836.05 3008.94 830.88 2972.66 525.36 2955.62 457.37 2907.53 453.19 2908.34 523.98 2928.41 836.05"/><polygon class="cls-6" points="3092.37 848.01 3173.51 842.83 3138.17 533.38 3125.09 472.12 3075.69 467.83 3074.35 531.92 3092.37 848.01"/><polygon class="cls-6" points="3255.39 861.15 3337.14 855.98 3302.72 542.62 3292.9 486.73 3242.53 482.35 3239.39 541.06 3255.39 861.15"/><polygon class="cls-6" points="3416.48 875.5 3498.89 870.33 3465.38 553.02 3458.26 501.13 3407.28 496.69 3402.55 551.41 3416.48 875.5"/><polygon class="cls-6" points="3575.4 891.04 3658.44 885.86 3625.84 564.63 3621.05 515.3 3569.75 510.84 3563.52 562.93 3575.4 891.04"/><polygon class="cls-6" points="3731.78 907.77 3815.44 902.59 3783.79 577.41 3781.06 529.23 3729.72 524.75 3721.99 575.65 3731.78 907.77"/><polygon class="cls-6" points="3885.36 925.69 3969.61 920.51 3938.89 591.43 3938.16 542.9 3887.1 538.46 3877.59 589.57 3885.36 925.69"/><polygon class="cls-6" points="4035.74 944.83 4120.64 939.63 4090.84 606.61 4092.24 556.33 4041.66 551.92 4030.06 604.69 4035.74 944.83"/><polygon class="cls-6" points="4182.67 965.14 4268.18 959.97 4239.32 623 4242.93 572.52 4210.33 566.6 4193.23 565.12 4179.02 621 4182.67 965.14"/><polygon class="cls-6" points="4325.81 986.67 4411.95 981.49 4384 640.61 4388.82 599.1 4338.24 589.88 4324.21 638.53 4325.81 986.67"/><polygon class="cls-6" points="4465.07 1009.39 4551.83 1004.2 4524.83 659.38 4530.41 624.86 4479.03 615.5 4465.54 657.23 4465.07 1009.39"/><polygon class="cls-7" points="9367.99 224.99 8308.8 271.38 7389.55 167.56 6098.76 318.87 5029.92 505.75 3787.31 843.96 5380.24 1103.42 9367.99 1103.42 9367.99 224.99"/><polygon class="cls-8" points="9367.99 293.95 8951.59 400.84 8535.18 293.72 8433.83 307.6 8189.35 475.35 7425.97 314.68 7292.14 382.06 7445.81 563.46 6479.58 698.02 6479.19 1103.42 9367.99 1103.42 9367.99 293.95"/><polygon class="cls-9" points="0 694.82 559.36 722.6 1700.29 653.14 2695.28 701.76 3663.75 826.79 5547.64 1103.42 0 1103.42 0 694.82"/><polygon class="cls-10" points="3841.64 852.9 4164.38 900.29 3870.8 1030.04 3806.33 1103.42 3453.22 1103.42 3627.04 970.13 3841.64 852.9"/><polygon class="cls-11" points="2897.14 952.44 2927.9 923.11 3156.57 761.3 3470.41 801.81 3248.02 940.24 3186.63 978.42 3098.59 1103.42 2738.79 1103.42 2780.18 1063.95 2897.14 952.44"/><polygon class="cls-11" points="2204.02 901.32 2228.75 870.88 2420.47 688.33 2695.28 701.76 2740.7 707.62 2551.03 878.02 2502.48 921.59 2412.82 1084.91 2401.48 1103.42 2039.82 1103.42 2109.93 1017.13 2204.02 901.32"/><polygon class="cls-11" points="1506.46 896.16 1525.19 864.59 1678.93 654.44 1700.29 653.14 1991.18 667.36 1849.59 861.76 1813.9 910.73 1743.6 1082.64 1738.34 1103.42 1383.55 1103.42 1435.25 1016.25 1506.46 896.16"/><polygon class="cls-11" points="806.37 918.12 819.1 885.42 901.65 701.76 1225.69 682.05 1145.63 872.64 1122.81 926.98 1072.96 1103.42 734.37 1103.42 758.05 1042.5 806.37 918.12"/><polygon class="cls-11" points="154.76 702.52 470.51 718.18 441.67 890.57 406.07 1103.42 75.36 1103.42 106.31 947.14 154.76 702.52"/><polygon class="cls-12" points="9367.99 452.96 7953.07 666.11 6530.15 586.18 5794.71 639.46 2964.85 1103.42 9367.99 1103.42 9367.99 452.96"/><polygon class="cls-13" points="4857.78 947.31 5188.71 774.3 5327.41 716.08 5077.4 757.06 4787.76 941.88 4857.78 947.31"/><polygon class="cls-13" points="5305.78 992.62 5382.28 993.1 5711.53 775.71 5992.08 625.15 5833.42 636.65 5588.99 765.02 5305.78 992.62"/><polygon class="cls-13" points="5823.77 1041.21 5906.81 1036.72 6234.34 774.98 6523.7 586.65 6372.36 597.6 6100.03 771.17 5823.77 1041.21"/><polygon class="cls-13" points="6341.78 1089.39 6431.33 1079.95 6757.15 773.86 6970.8 610.91 6843.01 603.76 6611.08 776.93 6341.78 1089.39"/><polygon class="cls-13" points="7435.7 637.04 7301.72 629.51 7122.12 782.77 6885.09 1103.42 6974.17 1103.42 7279.97 772.81 7435.7 637.04"/><polygon class="cls-13" points="7914.16 663.91 7772.92 655.97 7633.15 789.77 7431.53 1103.42 7532.84 1103.42 7802.78 772.91 7914.16 663.91"/><polygon class="cls-13" points="8501.84 583.44 8321.2 610.64 8144.21 798.02 7971.68 1103.42 8085.22 1103.42 8325.59 774.3 8501.84 583.44"/><polygon class="cls-13" points="9084.71 495.63 8899.56 523.52 8655.24 806.3 8506.46 1103.42 8632.16 1103.42 8848.4 775.69 9084.71 495.63"/><polygon class="cls-13" points="9367.99 561.64 9166.29 814.57 9037.16 1103.42 9175.03 1103.42 9367.99 782.4 9367.99 561.64"/><polygon class="cls-14" points="6462.9 884.22 4797.09 894.59 3646.9 707.97 3173.37 692.64 2576.02 728.69 1839.95 884.84 1217.62 1103.42 9141.12 1103.42 6462.9 884.22"/><polygon class="cls-15" points="3692.82 850.49 3703.22 832.03 3726.03 840.15 3709.22 851.21 3692.82 850.49"/><polygon class="cls-15" points="3604.51 828.95 3611.73 819.12 3622.16 827.45 3614.64 835.39 3604.51 828.95"/><polygon class="cls-15" points="3768.38 843.1 3776.74 828.31 3795.02 834.81 3781.52 843.66 3768.38 843.1"/><polygon class="cls-15" points="3761.25 1000.93 3764.89 986.07 3786.19 993.65 3774.55 1009.39 3761.25 1000.93"/><polygon class="cls-15" points="3946.1 946.83 3948.91 935.4 3965.29 941.23 3956.32 953.33 3946.1 946.83"/><polygon class="cls-15" points="3879.19 1003.81 3881.69 993.52 3896.47 998.75 3888.39 1009.67 3879.19 1003.81"/><polygon class="cls-15" points="3840.48 990.81 3847.83 980.78 3858.48 989.28 3850.8 997.38 3840.48 990.81"/><polygon class="cls-15" points="3840.54 996.45 3845.49 989.72 3852.65 995.41 3847.49 1000.85 3840.54 996.45"/><polygon class="cls-15" points="3918.2 1020.38 3921.41 1007.33 3940.11 1013.96 3929.88 1027.8 3918.2 1020.38"/><polygon class="cls-15" points="3906.35 864.69 3914.04 851.08 3930.87 857.06 3918.45 865.21 3906.35 864.69"/><polygon class="cls-15" points="3815.28 996.43 3817.89 985.73 3833.24 991.19 3824.84 1002.52 3815.28 996.43"/><polygon class="cls-15" points="3948.96 1005.97 3956.43 992.75 3972.78 998.56 3960.69 1006.49 3948.96 1005.97"/><polygon class="cls-15" points="3717.08 859.22 3726.75 846.04 3740.74 857.19 3730.66 867.85 3717.08 859.22"/><polygon class="cls-15" points="4399.38 914.37 4406.22 908.54 4417.38 914.5 4410.11 919.11 4399.38 914.37"/><polygon class="cls-15" points="4258.84 1037.94 4267.09 1030.9 4280.54 1038.09 4271.78 1043.65 4258.84 1037.94"/><polygon class="cls-15" points="4056.55 925.25 4058.79 918.14 4075.85 922.84 4067.37 930.02 4056.55 925.25"/><polygon class="cls-15" points="4064.9 823.72 4073.95 813.23 4096.32 819.41 4080.72 825.07 4064.9 823.72"/><polygon class="cls-15" points="4270.54 1042.26 4276.68 1035.13 4291.88 1039.35 4281.28 1043.18 4270.54 1042.26"/><polygon class="cls-15" points="4111.07 1063.94 4113.21 1057.14 4129.5 1061.66 4121.41 1068.5 4111.07 1063.94"/><polygon class="cls-15" points="4179.88 906.2 4186.62 900.46 4197.58 906.33 4190.44 910.85 4179.88 906.2"/><polygon class="cls-15" points="4431.13 981.05 4438.84 972.11 4457.95 977.38 4444.63 982.22 4431.13 981.05"/><polygon class="cls-15" points="4356.09 1048.82 4358.8 1040.15 4379.6 1045.9 4369.27 1054.64 4356.09 1048.82"/><polygon class="cls-15" points="4365.85 891.66 4374.86 883.96 4389.57 891.8 4380.02 897.9 4365.85 891.66"/><polygon class="cls-16" points="1520.62 1103.42 2174.95 967.75 2516.97 838.17 2928.39 947.01 3250.58 832.99 3417.17 852.37 3429.04 941.83 3362.97 1021.63 3295.22 1103.42 1520.62 1103.42"/><polygon class="cls-16" points="4633.59 972.95 4484.62 888.08 4518.78 863.87 4822.82 951.43 5833.18 962.57 7791.17 1103.42 4352.44 1103.42 4626.74 1019.38 4633.59 972.95"/><polygon class="cls-15" points="6573.73 452.57 6568.95 460.83 6556.2 458.67 6561.79 451.48 6573.73 452.57"/><polygon class="cls-15" points="6484.29 447.62 6484.4 457.31 6462.44 458.68 6469.7 446.3 6484.29 447.62"/><polygon class="cls-15" points="6599.18 407.67 6594.77 415.31 6583 413.32 6588.18 406.67 6599.18 407.67"/><polygon class="cls-15" points="6603.74 468.6 6600.17 477.65 6584.57 478.63 6593.35 471.29 6603.74 468.6"/><polygon class="cls-15" points="6639.79 363.02 6636.18 372.13 6620.48 373.12 6629.32 365.74 6639.79 363.02"/><polygon class="cls-15" points="6593.11 516.92 6593.16 520.54 6584.93 521.06 6587.65 516.42 6593.11 516.92"/><polygon class="cls-15" points="6706.7 428.94 6703.77 436.31 6691.06 437.11 6698.22 431.14 6706.7 428.94"/><polygon class="cls-15" points="6774.97 444.5 6772.06 451.86 6759.37 452.66 6766.53 446.68 6774.97 444.5"/><polygon class="cls-15" points="6687.4 493.46 6684.48 500.82 6671.79 501.62 6678.94 495.65 6687.4 493.46"/><polygon class="cls-15" points="6816.28 386.91 6813.38 394.27 6800.68 395.07 6807.84 389.1 6816.28 386.91"/><polygon class="cls-15" points="6920.95 397.85 6918.02 405.22 6905.32 406.01 6912.48 400.05 6920.95 397.85"/><polygon class="cls-15" points="6868.62 302.24 6865.7 309.61 6853 310.41 6860.15 304.44 6868.62 302.24"/><polygon class="cls-15" points="6882.19 454.79 6880.03 460.31 6870.53 460.88 6875.88 456.44 6882.19 454.79"/><polygon class="cls-15" points="7006.83 462.38 7004.53 468.17 6994.55 468.79 7000.18 464.11 7006.83 462.38"/><polygon class="cls-15" points="6943.64 363.81 6941.51 369.15 6932.32 369.73 6937.5 365.4 6943.64 363.81"/><polygon class="cls-15" points="6967.11 420.94 6965.25 425.65 6957.09 426.18 6961.7 422.34 6967.11 420.94"/><polygon class="cls-15" points="7012.18 384.13 7010.55 388.29 7003.37 388.73 7007.4 385.37 7012.18 384.13"/><polygon class="cls-15" points="6630.62 448.68 6628.54 453.91 6619.52 454.46 6624.61 450.23 6630.62 448.68"/><polygon class="cls-15" points="6524.35 401.6 6519.21 410.51 6505.48 408.17 6511.49 400.42 6524.35 401.6"/><polygon class="cls-15" points="6580 301.24 6580.11 309.26 6561.88 310.39 6567.9 300.14 6580 301.24"/><polygon class="cls-15" points="6707.89 350.37 6707.98 357.59 6691.58 358.62 6697 349.38 6707.89 350.37"/><polygon class="cls-15" points="6779.91 300.82 6775.82 311.11 6758.12 312.22 6768.11 303.89 6779.91 300.82"/><polygon class="cls-15" points="6648.67 308.92 6643.45 322.08 6620.75 323.51 6633.53 312.84 6648.67 308.92"/><polygon class="cls-15" points="6822.56 309.56 6822.63 316.05 6807.95 316.98 6812.81 308.69 6822.56 309.56"/><polygon class="cls-15" points="6761.38 317.99 6761.47 325.32 6744.86 326.36 6750.33 316.99 6761.38 317.99"/><polygon class="cls-15" points="6823.69 283.57 6823.77 291.05 6806.82 292.1 6812.41 282.56 6823.69 283.57"/><polygon class="cls-15" points="6689.75 353.31 6686.35 361.82 6671.67 362.73 6679.97 355.85 6689.75 353.31"/><polygon class="cls-15" points="6755.23 366.37 6755.35 374.48 6736.91 375.63 6743 365.26 6755.23 366.37"/><polygon class="cls-15" points="6698.8 321.35 6698.89 329.44 6680.52 330.6 6686.6 320.23 6698.8 321.35"/><polygon class="cls-15" points="6630.07 361.56 6625.48 369.46 6613.32 367.39 6618.67 360.52 6630.07 361.56"/><polygon class="cls-15" points="6471.97 433.37 6472.04 437.75 6462.1 438.37 6465.38 432.78 6471.97 433.37"/><polygon class="cls-15" points="6370.56 365.99 6370.61 370.37 6360.68 370.99 6363.98 365.39 6370.56 365.99"/><polygon class="cls-15" points="6270.18 423.02 6270.21 427.38 6260.29 428 6263.58 422.41 6270.18 423.02"/><polygon class="cls-15" points="6325.12 460.59 6325.17 464.96 6315.24 465.58 6318.52 459.99 6325.12 460.59"/><polygon class="cls-15" points="6376.14 523.96 6376.2 528.34 6366.28 528.95 6369.57 523.37 6376.14 523.96"/><polygon class="cls-15" points="6142.65 549.25 6142.71 552.98 6134.23 553.52 6137.03 548.75 6142.65 549.25"/><polygon class="cls-15" points="6219.88 496.49 6219.94 501.55 6208.47 502.27 6212.25 495.81 6219.88 496.49"/><polygon class="cls-15" points="6055.59 399.78 6055.61 402.27 6050 402.61 6051.86 399.44 6055.59 399.78"/><polygon class="cls-15" points="6034.46 557.58 6034.51 560.72 6027.34 561.17 6029.7 557.14 6034.46 557.58"/><polygon class="cls-15" points="6077.16 480.17 6077.23 484.54 6067.31 485.17 6070.57 479.57 6077.16 480.17"/><polygon class="cls-15" points="6454.24 350.21 6454.32 356.34 6440.38 357.21 6444.97 349.37 6454.24 350.21"/><polygon class="cls-15" points="6391.64 409.29 6391.67 411.91 6385.7 412.3 6387.67 408.93 6391.64 409.29"/><polygon class="cls-15" points="6569.69 360.83 6565.8 367.53 6555.45 365.79 6559.99 359.95 6569.69 360.83"/><polygon class="cls-15" points="6671.87 392.04 6666.57 401.18 6652.47 398.8 6658.67 390.83 6671.87 392.04"/><polygon class="cls-15" points="6517.68 322.96 6517.76 328.85 6504.44 329.68 6508.84 322.17 6517.68 322.96"/></svg>