<svg id="_ÎÓÈ_1" data-name="—ÎÓÈ_1" xmlns="http://www.w3.org/2000/svg" xmlns:xlink="http://www.w3.org/1999/xlink" viewBox="0 0 10091.31 2042.26"><defs><style>.cls-1{fill:url(#linear-gradient);}.cls-2{fill:url(#linear-gradient-2);}.cls-3{fill:url(#linear-gradient-3);}.cls-4{fill:url(#linear-gradient-4);}.cls-5{fill:url(#linear-gradient-5);}.cls-6{fill:url(#linear-gradient-6);}.cls-7{fill:url(#linear-gradient-7);}.cls-8{fill:url(#linear-gradient-8);}</style><linearGradient id="linear-gradient" x1="5949.08" y1="2494.12" x2="4808.3" y2="-1104.32" gradientUnits="userSpaceOnUse"><stop offset="0" stop-color="#394c59"/><stop offset="1" stop-color="#ffc3b8"/></linearGradient><linearGradient id="linear-gradient-2" x1="8475.91" y1="2170.32" x2="6879.01" y2="-1869.44" xlink:href="#linear-gradient"/><linearGradient id="linear-gradient-3" x1="5045.66" y1="2067.88" x2="5045.66" y2="-642.4" xlink:href="#linear-gradient"/><linearGradient id="linear-gradient-4" x1="4442.21" y1="2426.47" x2="4442.21" y2="-276.28" xlink:href="#linear-gradient"/><linearGradient id="linear-gradient-5" x1="6265.86" y1="3114.43" x2="4613.29" y2="-1066.2" xlink:href="#linear-gradient"/><linearGradient id="linear-gradient-6" x1="8450.24" y1="3092.49" x2="7069.77" y2="-399.77" xlink:href="#linear-gradient"/><linearGradient id="linear-gradient-7" x1="5533.08" y1="4648.35" x2="6333.38" y2="890.01" gradientTransform="matrix(-1, 0, 0, 1, 10311.05, -1813.51)" xlink:href="#linear-gradient"/><linearGradient id="linear-gradient-8" x1="4791.78" y1="3241.7" x2="3648.99" y2="23.41" xlink:href="#linear-gradient"/></defs><polygon class="cls-1" points="872.91 2042.26 5839.65 201.73 7599.53 88.34 8559.62 221.19 10091.31 0 10091.31 2042.26 872.91 2042.26"/><polygon class="cls-2" points="5839.65 201.73 7599.53 88.34 10091.31 1556.38 10091.31 2042.26 8355.6 2042.26 5839.65 201.73"/><polygon class="cls-3" points="10091.31 2042.26 10091.31 719.4 5775.35 646.33 3939.17 0 2220.99 929.71 1000 573.65 0 918.68 0 2042.26 10091.31 2042.26"/><polygon class="cls-4" points="2220.99 929.71 3939.17 0 6663.44 2042.26 3795.15 2042.26 2220.99 929.71"/><polygon class="cls-5" points="872.91 2042.26 5045.66 724.2 5686.94 829.27 6807.45 391.62 8715.64 699.47 10091.31 221.19 10091.31 2042.26 872.91 2042.26"/><polygon class="cls-6" points="5686.94 829.27 6807.45 391.62 9903.76 2042.26 7623.54 2042.26 5686.94 829.27"/><polygon class="cls-7" points="9218.4 2042.26 3567.13 918.68 2150.99 1430.18 0 1058.18 0 2042.26 9218.4 2042.26"/><polygon class="cls-8" points="2150.99 1430.18 3567.13 918.68 6363.4 2042.26 3507.12 2042.26 2150.99 1430.18"/></svg>