<svg id="_ÎÓÈ_1" data-name="—ÎÓÈ_1" xmlns="http://www.w3.org/2000/svg" xmlns:xlink="http://www.w3.org/1999/xlink" viewBox="0 0 16873.48 4463.5"><defs><style>.cls-1{fill:none;}.cls-2{clip-path:url(#clip-path);}.cls-3{opacity:0.8;fill:url(#linear-gradient);}.cls-4,.cls-9{fill:#fff;}.cls-4{opacity:0.2;}.cls-5{fill:url(#linear-gradient-2);}.cls-6{fill:url(#linear-gradient-3);}.cls-7{fill:url(#linear-gradient-4);}.cls-8{fill:url(#linear-gradient-5);}.cls-9{opacity:0.05;}</style><clipPath id="clip-path" transform="translate(5534.84 -268.54)"><rect class="cls-1" x="0.02" y="265.93" width="11338.61" height="5669.29"/></clipPath><linearGradient id="linear-gradient" x1="7787.33" y1="4758.76" x2="7787.33" y2="951.97" gradientTransform="matrix(-1, 0, 0, 1, 16224.07, -268.54)" gradientUnits="userSpaceOnUse"><stop offset="0" stop-color="#8fbae7"/><stop offset="1" stop-color="#66ace3"/></linearGradient><linearGradient id="linear-gradient-2" x1="8172.17" y1="4763.42" x2="8172.17" y2="1362.06" gradientTransform="matrix(-1, 0, 0, 1, 16224.07, -268.54)" gradientUnits="userSpaceOnUse"><stop offset="0" stop-color="#6599c4"/><stop offset="1" stop-color="#66ace3"/></linearGradient><linearGradient id="linear-gradient-3" x1="7931.69" y1="4743.16" x2="7931.69" y2="842.48" gradientTransform="translate(4387.26 -268.54)" gradientUnits="userSpaceOnUse"><stop offset="0" stop-color="#3a75a7"/><stop offset="1" stop-color="#7dafe3"/></linearGradient><linearGradient id="linear-gradient-4" x1="5081.94" y1="4717.65" x2="5081.94" y2="520.95" gradientTransform="translate(4387.26 -268.54)" gradientUnits="userSpaceOnUse"><stop offset="0" stop-color="#3a75a7"/><stop offset="1" stop-color="#9ac1e9"/></linearGradient><linearGradient id="linear-gradient-5" x1="8613.02" y1="4769.7" x2="8613.02" y2="889.82" gradientTransform="translate(4387.26 -268.54)" gradientUnits="userSpaceOnUse"><stop offset="0" stop-color="#3a75a7"/><stop offset="1" stop-color="#638db0"/></linearGradient></defs><g class="cls-2"><polygon class="cls-3" points="16873.48 4463.5 12833.67 2905.63 11454.23 1744.63 10454.96 1422.11 9631.67 553.33 8430.85 1538.27 8302.05 1428.63 6951.58 1690 6451.81 1929.13 5836.86 2135.39 5192.87 2231.24 4636.45 2600.44 3405.35 2860.5 0 4463.5 2065.58 4463.5 3278.05 4463.5 16873.48 4463.5"/><polygon class="cls-4" points="9631.67 553.33 9631.67 1265.41 8758.46 1753.75 8493.07 1790.52 8655.52 1675.83 7479.47 1774.53 6451.81 1929.13 6951.58 1690 8302.05 1428.63 8430.85 1538.27 9631.67 553.33"/><polygon class="cls-5" points="13580.92 4463.5 13596.02 1694.92 12660.41 1366.48 12458.44 1134.7 12090 584.72 11889.61 481.83 10785.4 1316.42 10664.82 1204.78 9380.3 1639.3 8731.58 1946.16 8038.03 2317.67 7049.61 2472.67 6211.2 2761.83 5513.86 2703.95 5051.56 3004.74 4189.66 3500.83 3006.52 3921.49 2507.79 4463.5 13580.92 4463.5"/><polygon class="cls-4" points="11889.61 481.83 11889.61 1206.94 10890.76 1809.52 10975.65 1624.85 10189.76 1665.05 8731.58 1946.16 9380.3 1639.3 10664.82 1204.78 10785.4 1316.42 11889.61 481.83"/><polygon class="cls-6" points="13178.56 1927.33 14388.85 1719.31 16873.48 0 16873.48 4463.5 7764.41 4463.5 10394.1 3176.27 11840.14 3112.77 13178.56 1927.33"/><polygon class="cls-7" points="9081.55 2170.45 9479.73 2487.92 10310.6 2387.96 11179.43 2683.08 12004.81 2022.28 12533.52 1888.64 14658.5 176.38 15094.76 269.83 15715.15 801.55 14388.85 1719.31 13178.56 1927.33 11840.14 3112.77 10394.1 3176.27 7764.41 4463.5 3223.24 4463.5 5400.73 3650.64 6754.28 3393.83 8389.6 2421.43 9081.55 2170.45"/><polygon class="cls-8" points="10910.37 3504.44 13975.92 2904.99 16150.76 880.25 16873.48 1300.2 16873.48 4463.5 9127.08 4463.5 10910.37 3504.44"/><polygon class="cls-9" points="14658.5 176.38 13718.22 934.03 12533.52 1888.64 14217.6 922.11 14043.05 1300.2 14581.41 936.38 14658.5 176.38"/><polygon class="cls-4" points="13975.92 2904.99 16150.76 880.25 15473.07 2091.99 15344.68 1927.91 14031.67 3220.3 13512.77 3300.39 13700.83 3140.2 11003.57 3486.22 13975.92 2904.99"/><polygon class="cls-4" points="12301.7 2703.95 13178.56 1927.33 14388.85 1719.31 13479.3 2104.47 13827.05 2115.17 13275.99 2281.02 12301.7 2703.95"/><polygon class="cls-4" points="3223.24 4463.5 6336.97 3950.24 6106.92 4163.3 7165.72 3758.2 8450.26 3019.31 9081.55 2170.45 8389.6 2421.43 6754.28 3393.83 5400.73 3650.64 3223.24 4463.5"/><polygon class="cls-4" points="7764.41 4463.5 10326.31 3500.83 10197.92 3461.58 10394.1 3176.27 7764.41 4463.5"/></g></svg>