<svg id="_ÎÓÈ_1" data-name="—ÎÓÈ_1" xmlns="http://www.w3.org/2000/svg" xmlns:xlink="http://www.w3.org/1999/xlink" viewBox="0 0 6000.18 2230.88"><defs><style>.cls-1{fill:none;}.cls-2{clip-path:url(#clip-path);}.cls-3{opacity:0.8;fill:url(#linear-gradient);}.cls-4,.cls-9{fill:#fff;}.cls-4{opacity:0.2;}.cls-5{fill:url(#linear-gradient-2);}.cls-6{fill:url(#linear-gradient-3);}.cls-7{fill:url(#linear-gradient-4);}.cls-8{fill:url(#linear-gradient-5);}.cls-9{opacity:0.05;}.cls-10{fill:#d0ec85;}</style><clipPath id="clip-path" transform="translate(-1471.46 -1752.39)"><rect class="cls-1" x="3439.64" y="1751.08" width="4031.99" height="2833.54"/></clipPath><linearGradient id="linear-gradient" x1="6217.68" y1="3996.62" x2="6217.68" y2="2093.97" gradientTransform="matrix(-1, 0, 0, 1, 9217.77, -1752.39)" gradientUnits="userSpaceOnUse"><stop offset="0" stop-color="#8fbae7"/><stop offset="1" stop-color="#66ace3"/></linearGradient><linearGradient id="linear-gradient-2" x1="6354.53" y1="3998.95" x2="6354.53" y2="2298.93" gradientTransform="matrix(-1, 0, 0, 1, 9217.77, -1752.39)" gradientUnits="userSpaceOnUse"><stop offset="0" stop-color="#6599c4"/><stop offset="1" stop-color="#66ace3"/></linearGradient><linearGradient id="linear-gradient-3" x1="6999.64" y1="3988.83" x2="6999.64" y2="2039.24" gradientTransform="translate(-2619.04 -1752.39)" gradientUnits="userSpaceOnUse"><stop offset="0" stop-color="#3a75a7"/><stop offset="1" stop-color="#7dafe3"/></linearGradient><linearGradient id="linear-gradient-4" x1="5986.27" y1="3976.08" x2="5986.27" y2="1878.54" gradientTransform="translate(-2619.04 -1752.39)" gradientUnits="userSpaceOnUse"><stop offset="0" stop-color="#3a75a7"/><stop offset="1" stop-color="#9ac1e9"/></linearGradient><linearGradient id="linear-gradient-5" x1="7241.92" y1="4003.11" x2="7241.92" y2="1958.34" gradientTransform="translate(-2619.04 -1752.39)" gradientUnits="userSpaceOnUse"><stop offset="0" stop-color="#3a75a7"/><stop offset="1" stop-color="#638db0"/></linearGradient></defs><g class="cls-2"><polygon class="cls-3" points="6000.18 2230.88 4563.63 1452.25 4073.1 871.97 3717.76 710.78 3425 276.56 2997.99 768.83 2952.19 714.03 2471.97 844.67 2294.25 964.19 2075.57 1067.28 1846.58 1115.18 1648.71 1299.71 1210.94 1429.69 0 2230.88 734.52 2230.88 1165.67 2230.88 6000.18 2230.88"/><polygon class="cls-4" points="3425 276.56 3425 632.46 3114.49 876.53 3020.12 894.91 3077.89 837.59 2659.68 886.92 2294.25 964.19 2471.97 844.67 2952.19 714.03 2997.99 768.83 3425 276.56"/><polygon class="cls-5" points="4829.35 2230.88 4834.72 847.13 4502.02 682.98 4430.19 567.13 4299.18 292.25 4227.92 240.82 3835.27 657.96 3792.39 602.16 3335.62 819.33 3104.93 972.7 2858.31 1158.38 2506.83 1235.86 2208.69 1380.38 1960.72 1351.45 1796.32 1501.78 1489.84 1749.73 1069.11 1959.98 891.76 2230.88 4829.35 2230.88"/><polygon class="cls-4" points="4227.92 240.82 4227.92 603.23 3872.73 904.41 3902.92 812.11 3623.46 832.2 3104.93 972.7 3335.62 819.33 3792.39 602.16 3835.27 657.96 4227.92 240.82"/><polygon class="cls-6" points="4686.27 963.29 5116.65 859.32 6000.18 0 6000.18 2230.88 2761.01 2230.88 3696.12 1587.52 4210.33 1555.78 4686.27 963.29"/><polygon class="cls-7" points="3229.38 1084.81 3370.97 1243.48 3666.43 1193.51 3975.38 1341.02 4268.89 1010.75 4456.89 943.95 5212.53 88.15 5367.66 134.86 5588.27 400.62 5116.65 859.32 4686.27 963.29 4210.33 1555.78 3696.12 1587.52 2761.01 2230.88 1146.18 2230.88 1920.49 1824.61 2401.81 1696.25 2983.32 1210.24 3229.38 1084.81"/><polygon class="cls-8" points="3879.71 1751.54 4969.81 1451.93 6000.17 342.44 6000.18 649.85 6000.18 2230.88 3245.57 2230.88 3879.71 1751.54"/><polygon class="cls-9" points="5212.53 88.15 4878.17 466.83 4456.89 943.95 5055.75 460.88 4993.68 649.85 5185.12 468.01 5212.53 88.15"/><polygon class="cls-4" points="4997.68 1470.51 5925.49 534.44 5584.84 1082.57 5526 1023.74 5017.51 1628.1 4832.98 1668.13 4899.86 1588.07 3940.72 1761.01 4997.68 1470.51"/><polygon class="cls-4" points="4374.46 1351.45 4686.27 963.29 5116.65 859.32 4793.21 1051.83 4916.87 1057.17 4720.91 1140.07 4374.46 1351.45"/><polygon class="cls-4" points="1146.18 2230.88 2253.41 1974.35 2171.61 2080.84 2548.12 1878.37 3004.89 1509.07 3229.38 1084.81 2983.32 1210.24 2401.81 1696.25 1920.49 1824.61 1146.18 2230.88"/><polygon class="cls-4" points="2761.01 2230.88 3672.01 1749.73 3626.36 1730.12 3696.12 1587.52 2761.01 2230.88"/></g><path class="cls-10" d="M3547.67,1930.69" transform="translate(-1471.46 -1752.39)"/></svg>