<svg xmlns="http://www.w3.org/2000/svg" xmlns:xlink="http://www.w3.org/1999/xlink" viewBox="0 0 1920 645.53"><defs><style>.cls-1{opacity:0.6;}.cls-2{fill:url(#New_Gradient_Swatch_4);}</style><linearGradient id="New_Gradient_Swatch_4" x1="960" y1="434.47" x2="960" y2="1080" gradientUnits="userSpaceOnUse"><stop offset="0" stop-color="#946769"/><stop offset="0.2" stop-color="#8a6266"/><stop offset="0.52" stop-color="#71535d"/><stop offset="0.94" stop-color="#473b4f"/><stop offset="0.98" stop-color="#42384d"/></linearGradient></defs><g id="Rocks_3" data-name="Rocks 3" class="cls-1"><path class="cls-2" d="M1920,495.26c-63.67-15.08-130.65-29.84-191.5-53.36-10.37-4-21.15-8.32-32.22-7.26-8.63.82-16.58,4.86-24.31,8.8a2677.23,2677.23,0,0,1-298.78,129.7c-47,17.08-95.67,33-145.63,31.63-96.65-2.73-185.19-69.89-281.53-61.6-74.83,6.44-141.09,57.94-216.18,59.6-68.2,1.5-129.45-38-193.14-62.46-18.33-7-37.9-12.95-57.35-10.25-14.38,2-27.67,8.58-40.73,14.94-47.17,23-97.1,44.59-149.56,44-100.24-1-191-73.74-289-95L0,1073.44,1920,1080Z" transform="translate(0 -434.47)"/></g></svg>