<svg id="Rocks_1" data-name="Rocks 1" xmlns="http://www.w3.org/2000/svg" xmlns:xlink="http://www.w3.org/1999/xlink" viewBox="0 0 1920.19 334.99"><defs><style>.cls-1{fill:url(#New_Gradient_Swatch_4);}.cls-2{fill:url(#linear-gradient);}.cls-3{fill:url(#linear-gradient-2);}.cls-4{fill:url(#linear-gradient-3);}.cls-5{fill:url(#New_Gradient_Swatch_13);}.cls-6{fill:url(#linear-gradient-4);}.cls-7{fill:url(#New_Gradient_Swatch_9);}.cls-8{fill:url(#New_Gradient_Swatch_13-2);}.cls-9{fill:url(#New_Gradient_Swatch_13-3);}.cls-10{fill:url(#New_Gradient_Swatch_13-4);}.cls-11{fill:url(#linear-gradient-5);}.cls-12{opacity:0.4;fill:url(#linear-gradient-6);}.cls-13{fill:url(#New_Gradient_Swatch_13-5);}.cls-14{fill:url(#New_Gradient_Swatch_13-6);}</style><linearGradient id="New_Gradient_Swatch_4" x1="960.1" y1="746.74" x2="960.1" y2="1080" gradientUnits="userSpaceOnUse"><stop offset="0" stop-color="#946769"/><stop offset="0.2" stop-color="#8a6266"/><stop offset="0.52" stop-color="#71535d"/><stop offset="0.94" stop-color="#473b4f"/><stop offset="0.98" stop-color="#42384d"/></linearGradient><linearGradient id="linear-gradient" x1="603.49" y1="1080.76" x2="603.49" y2="746.92" gradientUnits="userSpaceOnUse"><stop offset="0" stop-color="#42384d" stop-opacity="0"/><stop offset="0.21" stop-color="#42384d" stop-opacity="0.08"/><stop offset="0.48" stop-color="#42384d" stop-opacity="0.3"/><stop offset="0.8" stop-color="#42384d" stop-opacity="0.67"/><stop offset="0.9" stop-color="#42384d" stop-opacity="0.8"/></linearGradient><linearGradient id="linear-gradient-2" x1="1298.49" y1="1080.76" x2="1298.49" y2="858.31" xlink:href="#linear-gradient"/><linearGradient id="linear-gradient-3" x1="1298.49" y1="1081.46" x2="1298.49" y2="858.47" xlink:href="#linear-gradient"/><linearGradient id="New_Gradient_Swatch_13" x1="714.56" y1="1080" x2="714.56" y2="746.87" xlink:href="#linear-gradient"/><linearGradient id="linear-gradient-4" x1="514.75" y1="900.19" x2="403.05" y2="1207.09" gradientUnits="userSpaceOnUse"><stop offset="0" stop-color="#332840"/><stop offset="1" stop-color="#42384d" stop-opacity="0.6"/></linearGradient><linearGradient id="New_Gradient_Swatch_9" x1="1209.38" y1="842.96" x2="1096.58" y2="1152.86" gradientTransform="matrix(1, 0.04, -0.04, 1.01, 39.3, -55.64)" gradientUnits="userSpaceOnUse"><stop offset="0" stop-color="#33303d"/><stop offset="0.5" stop-color="#36323e" stop-opacity="0.97"/><stop offset="0.68" stop-color="#413843" stop-opacity="0.86"/><stop offset="0.8" stop-color="#54424c" stop-opacity="0.66"/><stop offset="0.91" stop-color="#6e5258" stop-opacity="0.39"/><stop offset="0.99" stop-color="#916567" stop-opacity="0.04"/><stop offset="1" stop-color="#946769" stop-opacity="0"/></linearGradient><linearGradient id="New_Gradient_Swatch_13-2" x1="811.5" y1="80.1" x2="811.5" y2="25.53" xlink:href="#linear-gradient"/><linearGradient id="New_Gradient_Swatch_13-3" x1="874.17" y1="968.79" x2="874.17" y2="842.64" xlink:href="#linear-gradient"/><linearGradient id="New_Gradient_Swatch_13-4" x1="765.93" y1="66.32" x2="765.93" y2="36.53" xlink:href="#linear-gradient"/><linearGradient id="linear-gradient-5" x1="924.2" y1="812.1" x2="906.34" y2="856.31" gradientUnits="userSpaceOnUse"><stop offset="0" stop-color="#9cfff7" stop-opacity="0.7"/><stop offset="0.01" stop-color="#9cfef6" stop-opacity="0.69"/><stop offset="0.27" stop-color="#94c6c3" stop-opacity="0.45"/><stop offset="0.51" stop-color="#8f9b9a" stop-opacity="0.26"/><stop offset="0.72" stop-color="#8a7b7d" stop-opacity="0.12"/><stop offset="0.89" stop-color="#88686b" stop-opacity="0.03"/><stop offset="1" stop-color="#876165" stop-opacity="0"/></linearGradient><linearGradient id="linear-gradient-6" x1="1632.96" y1="907.11" x2="1616.11" y2="948.8" gradientUnits="userSpaceOnUse"><stop offset="0" stop-color="#9cfff7" stop-opacity="0.7"/><stop offset="0.01" stop-color="#9cfcf5" stop-opacity="0.69"/><stop offset="0.2" stop-color="#95cdc9" stop-opacity="0.48"/><stop offset="0.38" stop-color="#90a7a5" stop-opacity="0.31"/><stop offset="0.56" stop-color="#8c8889" stop-opacity="0.17"/><stop offset="0.72" stop-color="#897375" stop-opacity="0.08"/><stop offset="0.87" stop-color="#886669" stop-opacity="0.02"/><stop offset="1" stop-color="#876165" stop-opacity="0"/></linearGradient><linearGradient id="New_Gradient_Swatch_13-5" x1="1475.21" y1="956.1" x2="1475.21" y2="926.31" gradientTransform="translate(-226.15 -213.69) rotate(-18.79)" xlink:href="#linear-gradient"/><linearGradient id="New_Gradient_Swatch_13-6" x1="1490.48" y1="944.44" x2="1490.48" y2="892.34" gradientTransform="matrix(0.96, -0.28, 0.28, 0.96, -203.67, -320.22)" xlink:href="#linear-gradient"/></defs><path class="cls-1" d="M1542.13,871.7c-13.31-6.13-27-12.36-41.59-13.44-16-1.18-31.78,3.92-47,9L1311.78,914c-21.76,7.18-43.8,14.42-66.66,16.11-27.43,2-54.77-4-81.38-11-133-34.75-259.18-92.7-378.37-161.28-9.14-5.26-18.73-10.73-29.27-11.09-7.82-.28-15.43,2.31-22.83,4.87C485.37,837.18,247.9,960.67,0,1046.22V1080H1920l.19-34.13Z" transform="translate(0 -746.47)"/><path class="cls-2" d="M337.73,911.37C240.33,955.59,0,1046.22,0,1046.22V1080l1207,.76A2192.79,2192.79,0,0,0,943.27,975.11C889.45,957.54,799,874,745,850c29.56-15.38,54.81,1.61,81-19,0,0-49.51-23.63-101.08-47.06,12-23.06,14.48-14,26.52-37-12.69,1.08-162.69,58.73-162.69,58.73l-45.06,18.23s-60.84,27.64-91.23,38.22" transform="translate(0 -746.47)"/><path class="cls-3" d="M1411,946c29.56-15.38,80.13-12.17,106.31-32.78C1462,901.17,1501.57,922.43,1450,899c12-23.06,38.38-40.53,38.38-40.53-4.21-4.65-276,90.13-416.94,142-97.7,35.94-185.79,80.33-185.79,80.33h825.67c-55.15-18.34-148.68-41-217.56-74.17-12.67-6.1,18.33-42.09,7.15-47.29C1478.51,948.86,1423.78,950.17,1411,946Z" transform="translate(0 -746.47)"/><path class="cls-4" d="M1411,946c29.56-15.38,80.13-12.17,106.31-32.78C1462,901.17,1501.57,922.43,1450,899c12-23.06,26.35-17.47,38.38-40.53a789.61,789.61,0,0,0-97.62,31.39c-14.53,5.71,44.57,18.59,30,23.51-19.34,6.52-103.18,37.11-122.27,43.57-15.78,5.34,98.82,34.82,83.1,40.2-11.64,4-162.94,31.1-174.6,35.13-19.92,6.88-82.31-19.28-102.42-12.16-24.89,8.81-97.44,23-123,32.43-97.7,35.94-95.94,28.22-95.94,28.22h825.67c-55.15-18.34-148.68-41-217.56-74.17-12.67-6.1,18.33-42.09,7.15-47.29C1478.51,948.86,1423.78,950.17,1411,946Z" transform="translate(0 -746.47)"/><path class="cls-5" d="M943.27,974.63C889.45,957.11,799,873.8,745,849.87c29.56-15.34,54.81,1.6,81-19,0,0-49.51-23.57-101.08-46.93,12-23,14.48-14.08,26.52-37.07-4.69-1.67-125,44.38-125,44.38l67.18,23.86s-65.42,13.06-95.81,23.61c-37.07,12.88-21.25,82.05-21.25,82.05S228.2,1075.21,222.14,1079.23L1207,1080A2194.5,2194.5,0,0,0,943.27,974.63Z" transform="translate(0 -746.47)"/><path class="cls-6" d="M492.9,892.23s-38.71,31.43-53.46,36.92C414.15,938.55,293,988,293,988S90.05,1065.46,47.54,1077.7l236.81,2.42H851.86l-271.29-81L526.29,963Z" transform="translate(0 -746.47)"/><path class="cls-7" d="M1305.4,913.52s-63.86,23.24-78.82,28.26c-25.62,8.59-40.88,20.14-109.17,47.52-41,16.42-102.41,41.17-195.07,91.41h301.38l67.56-59,56.18-38.07V951.35l25.63-11.1,10.9-29.76Z" transform="translate(0 -746.47)"/><polygon class="cls-8" points="745.33 32.93 746.62 29.21 773.33 25.53 794.33 42.53 818.67 45.85 877.67 80.1 805.2 58.35 806.67 70.93 780.14 41.6 745.33 32.93"/><path class="cls-9" d="M828,842.67c1.16-.81,11.67,15.66,11.67,15.66l10.33,20,30,15.34,15.33,28,62,47.12L910,941l-26-16.33L847.33,890l-12-9.33L791,849S819.55,848.48,828,842.67Z" transform="translate(0 -746.47)"/><polygon class="cls-10" points="733.33 36.53 779 43.78 798.53 66.32 733.33 36.53"/><path class="cls-11" d="M758.33,746.92l11.56,7.43-11.89,4-7.33,7.4-4.06,9.95L773.33,772l21,17,24.34,3.32,59,34.25,27,16.07s-11.17,9.19-10.17,8.86S1083,895,1083,895l-75.06-27.7S927,830,899.33,819C864,805,763.5,740.5,758.33,746.92Z" transform="translate(0 -746.47)"/><path class="cls-12" d="M1509.7,860.06l10.24,8.51-7.85,8.16L1478,893l40.67,4,32.33,9.83,19-1.37,59,34.25,27,16.07,110.18,19.15s-79.26-38.29-106.89-49.24C1624,911.69,1514.87,853.65,1509.7,860.06Z" transform="translate(0 -746.47)"/><polygon class="cls-13" points="1437.94 198.59 1483.51 190.75 1509.25 205.8 1437.94 198.59"/><polygon class="cls-14" points="1457.67 151.52 1463.33 143.2 1472.43 136.18 1487.46 124.55 1491.21 116.06 1488.32 146.29 1517.26 162.74 1489.55 158.68 1478 160.36 1457.67 151.52"/></svg>