<svg id="Rocks_1" data-name="Rocks 1" xmlns="http://www.w3.org/2000/svg" xmlns:xlink="http://www.w3.org/1999/xlink" viewBox="0 0 1920.19 334.03"><defs><style>.cls-1{fill:url(#New_Gradient_Swatch_4);}.cls-2{fill:url(#linear-gradient);}.cls-3{fill:url(#linear-gradient-2);}</style><linearGradient id="New_Gradient_Swatch_4" x1="960.1" y1="746.74" x2="960.1" y2="1080" gradientUnits="userSpaceOnUse"><stop offset="0" stop-color="#946769"/><stop offset="0.2" stop-color="#8a6266"/><stop offset="0.52" stop-color="#71535d"/><stop offset="0.94" stop-color="#473b4f"/><stop offset="0.98" stop-color="#42384d"/></linearGradient><linearGradient id="linear-gradient" x1="603.49" y1="1080.76" x2="603.49" y2="746.92" gradientUnits="userSpaceOnUse"><stop offset="0" stop-color="#42384d" stop-opacity="0"/><stop offset="0.21" stop-color="#42384d" stop-opacity="0.08"/><stop offset="0.48" stop-color="#42384d" stop-opacity="0.3"/><stop offset="0.8" stop-color="#42384d" stop-opacity="0.67"/><stop offset="0.9" stop-color="#42384d" stop-opacity="0.8"/></linearGradient><linearGradient id="linear-gradient-2" x1="1298.49" y1="1080.76" x2="1298.49" y2="858.31" xlink:href="#linear-gradient"/></defs><path class="cls-1" d="M1542.13,871.7c-13.31-6.13-27-12.36-41.59-13.44-16-1.18-31.78,3.92-47,9L1311.78,914c-21.76,7.18-43.8,14.42-66.66,16.11-27.43,2-54.77-4-81.38-11-133-34.75-259.18-92.7-378.37-161.28-9.14-5.26-18.73-10.73-29.27-11.09-7.82-.28-15.43,2.31-22.83,4.87C485.37,837.18,247.9,960.67,0,1046.22V1080H1920l.19-34.13Z" transform="translate(0 -746.74)"/><path class="cls-2" d="M943.27,975.11C889.45,957.54,799,874,745,850c29.56-15.38,54.81,1.61,81-19,0,0-49.51-23.63-101.08-47.06,12-23.06,14.48-14,26.52-37-12.69,1.08-162.69,58.73-162.69,58.73l-45.06,18.23s-60.84,27.64-91.23,38.22C415.38,875,374.9,894.49,337.73,911.37,240.33,955.59,0,1046.22,0,1046.22V1080l1207,.76A2192.79,2192.79,0,0,0,943.27,975.11Z" transform="translate(0 -746.74)"/><path class="cls-3" d="M1411,946c29.56-15.38,80.13-12.17,106.31-32.78C1462,901.17,1501.57,922.43,1450,899c12-23.06,38.38-40.53,38.38-40.53-4.21-4.65-276,90.13-416.94,142-97.7,35.94-185.79,80.33-185.79,80.33h825.67c-55.15-18.34-148.68-41-217.56-74.17-12.67-6.1,18.33-42.09,7.15-47.29C1478.51,948.86,1423.78,950.17,1411,946Z" transform="translate(0 -746.74)"/></svg>