<svg id="Rocks_2" data-name="Rocks 2" xmlns="http://www.w3.org/2000/svg" xmlns:xlink="http://www.w3.org/1999/xlink" viewBox="0 0 1920 437.01"><defs><style>.cls-1{fill:url(#linear-gradient);}.cls-2{opacity:0.5;}.cls-3{fill:url(#linear-gradient-2);}.cls-4{fill:url(#linear-gradient-3);}</style><linearGradient id="linear-gradient" x1="984.28" y1="644.45" x2="984.28" y2="1080.6" gradientTransform="matrix(-1, 0, 0, 1, 1944.28, 0)" gradientUnits="userSpaceOnUse"><stop offset="0" stop-color="#9e807d"/><stop offset="0.26" stop-color="#94797a"/><stop offset="0.68" stop-color="#7b6874"/><stop offset="0.98" stop-color="#65596e"/></linearGradient><linearGradient id="linear-gradient-2" x1="1146.02" y1="1256.37" x2="1146.02" y2="667.54" gradientTransform="translate(-160.83 252.49) rotate(-12.42)" gradientUnits="userSpaceOnUse"><stop offset="0" stop-color="#42384d" stop-opacity="0"/><stop offset="0.21" stop-color="#42384d" stop-opacity="0.08"/><stop offset="0.48" stop-color="#42384d" stop-opacity="0.3"/><stop offset="0.8" stop-color="#42384d" stop-opacity="0.67"/><stop offset="0.9" stop-color="#42384d" stop-opacity="0.8"/></linearGradient><linearGradient id="linear-gradient-3" x1="307.3" y1="1178.77" x2="307.3" y2="835.62" gradientTransform="matrix(0.98, -0.21, 0.21, 0.98, -187.81, 67.38)" xlink:href="#linear-gradient-2"/></defs><path class="cls-1" d="M377.87,808c14.15-6.42,27-16.17,41.59-17.58,16-1.55,31.78,5.13,47.05,11.72l141.71,61.22c21.76,9.4,43.8,18.88,66.66,21.09,27.43,2.65,54.77-5.28,81.38-14.37,133-45.49,259.18-121.32,378.37-211.07,9.14-6.89,18.73-14,29.27-14.52,7.82-.36,15.43,3,22.83,6.37L1920,982v98.57H0L0,986C127,919.62,246,867.86,377.87,808Z" transform="translate(0 -644.45)"/><g class="cls-2"><path class="cls-3" d="M1387,799.28c-56.34-5.58-150-37.91-207.93-49.73,25.56-21.38,53.87-10.22,75-36,0,0-53.44-12.43-108.84-24.21,6.8-25.11,4.62-18.42,11.41-43.53-17.61,2.84-83.61,75.5-277.94,172.5-93.15,46.49-424.95,257.89-430,263.13h94.59L1920,1080.6V982L1679.84,875.52C1588.34,854.13,1480.47,808.55,1387,799.28Z" transform="translate(0 -644.45)"/></g><g class="cls-2"><path class="cls-4" d="M351.51,892.88c25.6-21.34,75.68-29,96.87-54.72-56.64.05-13.42,12.36-68.8.48,6.84-25.1,22.52-21.23,29.36-46.32C381.94,801.25,0,986,0,986l0,94.64,696.33.16c-55.68-19.44-176.65-128.6-251-146.35-13.68-3.26,8.93-45-3.11-47.73C418.08,881.27,364.89,894.23,351.51,892.88Z" transform="translate(0 -644.45)"/></g></svg>