<svg id="Rocks_1" data-name="Rocks 1" xmlns="http://www.w3.org/2000/svg" xmlns:xlink="http://www.w3.org/1999/xlink" viewBox="0 0 1920.19 333.26"><defs><style>.cls-1{fill:url(#New_Gradient_Swatch_4);}.cls-2{fill:url(#New_Gradient_Swatch_13);}.cls-3{fill:url(#New_Gradient_Swatch_13-2);}</style><linearGradient id="New_Gradient_Swatch_4" x1="960.1" y1="746.74" x2="960.1" y2="1080" gradientUnits="userSpaceOnUse"><stop offset="0" stop-color="#946769"/><stop offset="0.2" stop-color="#8a6266"/><stop offset="0.52" stop-color="#71535d"/><stop offset="0.94" stop-color="#473b4f"/><stop offset="0.98" stop-color="#42384d"/></linearGradient><linearGradient id="New_Gradient_Swatch_13" x1="733.33" y1="783" x2="733.33" y2="783" gradientUnits="userSpaceOnUse"><stop offset="0" stop-color="#42384d" stop-opacity="0"/><stop offset="0.21" stop-color="#42384d" stop-opacity="0.08"/><stop offset="0.48" stop-color="#42384d" stop-opacity="0.3"/><stop offset="0.8" stop-color="#42384d" stop-opacity="0.67"/><stop offset="0.9" stop-color="#42384d" stop-opacity="0.8"/></linearGradient><linearGradient id="New_Gradient_Swatch_13-2" x1="798.53" y1="812.79" x2="798.53" y2="812.79" xlink:href="#New_Gradient_Swatch_13"/></defs><path class="cls-1" d="M1542.13,871.7c-13.31-6.13-27-12.36-41.59-13.44-16-1.18-31.78,3.92-47,9L1311.78,914c-21.76,7.18-43.8,14.42-66.66,16.11-27.43,2-54.77-4-81.38-11-133-34.75-259.18-92.7-378.37-161.28-9.14-5.26-18.73-10.73-29.27-11.09-7.82-.28-15.43,2.31-22.83,4.87C485.37,837.18,247.9,960.67,0,1046.22V1080H1920l.19-34.13Z" transform="translate(0 -746.74)"/><path class="cls-2" d="M733.33,783" transform="translate(0 -746.74)"/><path class="cls-3" d="M798.53,812.79" transform="translate(0 -746.74)"/></svg>